<?xml version="1.0" encoding="UTF-8"?>
<svg id="_レイヤー_1" data-name="レイヤー_1" xmlns="http://www.w3.org/2000/svg" xmlns:xlink="http://www.w3.org/1999/xlink" version="1.1" viewBox="0 0 1080 1920">
  <!-- Generator: Adobe Illustrator 30.2.1, SVG Export Plug-In . SVG Version: 2.1.1 Build 1)  -->
  <defs>
    <style>
      .st0 {
        fill: none;
      }

      .st1 {
        fill: #e61673;
      }

      .st2 {
        fill: #dae000;
      }

      .st3 {
        fill: #17499d;
      }

      .st4 {
        fill: url(#_新規パターンスウォッチ_28);
      }

      .st5 {
        fill: #f5ea29;
      }

      .st6 {
        fill: #e4007f;
      }

      .st7 {
        fill: url(#_新規パターンスウォッチ_41);
      }

      .st7, .st8 {
        isolation: isolate;
        opacity: .6;
      }

      .st8 {
        fill: url(#_新規パターンスウォッチ_32);
      }

      .st9 {
        fill: #231815;
      }

      .st10, .st11 {
        fill: #fff;
      }

      .st12 {
        fill: url(#_新規パターンスウォッチ_7);
        fill-opacity: .3;
      }

      .st13 {
        fill: #8fc31f;
      }

      .st14 {
        fill: url(#_新規パターンスウォッチ_6);
      }

      .st15 {
        fill: #f39800;
      }

      .st16 {
        opacity: .5;
      }

      .st17 {
        fill: #00a0e9;
      }

      .st11 {
        stroke: #231815;
        stroke-miterlimit: 10;
        stroke-width: .7px;
      }

      .st18 {
        fill: #fff100;
      }

      .st19 {
        fill: #7f7f80;
      }

      .st20 {
        fill: #ea5514;
      }

      .st21 {
        fill: #e60012;
      }

      .st22 {
        fill: #a28ec2;
      }
    </style>
    <pattern id="_新規パターンスウォッチ_7" data-name=" 新規パターンスウォッチ 7" x="0" y="0" width="141.7" height="141.7" patternTransform="translate(-27 23) scale(1 -1)" patternUnits="userSpaceOnUse" viewBox="0 0 141.7 141.7">
      <g>
        <rect class="st0" width="141.7" height="141.7"/>
        <rect class="st0" width="141.7" height="141.7"/>
        <circle class="st5" cx="141.7" cy="0" r="14.2"/>
        <circle class="st5" cx="0" cy="0" r="14.2"/>
        <circle class="st5" cx="70.9" cy="70.9" r="14.2"/>
        <circle class="st5" cx="141.7" cy="141.7" r="14.2"/>
        <circle class="st5" cy="141.7" r="14.2"/>
      </g>
    </pattern>
    <pattern id="_新規パターンスウォッチ_28" data-name=" 新規パターンスウォッチ 28" x="0" y="0" width="52.3" height="26.2" patternTransform="translate(-16410.7 11.3) rotate(-1.7) scale(.5 -.5) skewX(-14.5)" patternUnits="userSpaceOnUse" viewBox="0 0 52.3 26.2">
      <g>
        <rect class="st0" width="52.3" height="26.2"/>
        <rect class="st0" width="52.3" height="26.2"/>
        <rect class="st10" width="26.2" height="26.2"/>
        <rect class="st22" x="26.2" width="26.2" height="26.2"/>
      </g>
    </pattern>
    <pattern id="_新規パターンスウォッチ_6" data-name=" 新規パターンスウォッチ 6" x="0" y="0" width="141.7" height="141.7" patternTransform="translate(3238.2 -2997.3) scale(23.9 -23.9)" patternUnits="userSpaceOnUse" viewBox="0 0 141.7 141.7">
      <g>
        <rect class="st0" width="141.7" height="141.7"/>
        <rect class="st0" width="141.7" height="141.7"/>
        <circle class="st19" cx="141.7" cy="0" r="14.2"/>
        <circle class="st19" cx="0" cy="0" r="14.2"/>
        <circle class="st19" cx="70.9" cy="70.9" r="14.2"/>
        <circle class="st19" cx="141.7" cy="141.7" r="14.2"/>
        <circle class="st19" cy="141.7" r="14.2"/>
      </g>
    </pattern>
    <pattern id="_新規パターンスウォッチ_32" data-name=" 新規パターンスウォッチ 32" x="0" y="0" width="141.7" height="141.7" patternTransform="translate(-18.2 -9812.4) rotate(29) scale(.2 -.2)" patternUnits="userSpaceOnUse" viewBox="0 0 141.7 141.7">
      <g>
        <rect class="st0" y="0" width="141.7" height="141.7"/>
        <rect class="st0" y="0" width="141.7" height="141.7"/>
        <path class="st21" d="M131.1,38.6c-14.1,5.8-24.1,3.6-33.3-13.2-9.6,16.6-19.6,18.9-33.6,12.1-9.6-4.6-18.5-24.8,2.6-48,12.2-13.4,27.3-17.4,31-18.2,0-.1,0-.2,0-.2,0,0,.1,0,.4,0,.2,0,.4,0,.4,0,0,0,0,0,0,.2,3.7.9,18.8,5.2,30.7,18.8,20.7,23.7,11.5,44.4,1.7,48.5h0Z"/>
        <path class="st21" d="M-10.7,38.6c-14.1,5.8-24.1,3.6-33.3-13.2-9.6,16.6-19.6,18.9-33.6,12.1-9.6-4.6-18.5-24.8,2.6-48,12.2-13.4,27.3-17.4,31-18.2,0-.1,0-.2,0-.2,0,0,.1,0,.4,0,.2,0,.4,0,.4,0,0,0,0,0,0,.2,3.7.9,18.8,5.2,30.7,18.8C8.3,13.8-.8,34.6-10.7,38.6h0Z"/>
        <path class="st21" d="M201.9,109.5c-14.1,5.8-24.1,3.6-33.3-13.2-9.6,16.6-19.6,18.9-33.6,12.1-9.6-4.6-18.5-24.8,2.6-48,12.2-13.4,27.3-17.4,31-18.2,0,0,0-.2,0-.2,0,0,.1,0,.4,0,.2,0,.4,0,.4,0,0,0,0,0,0,.2,3.7.9,18.8,5.2,30.7,18.8,20.7,23.7,11.5,44.5,1.7,48.5h0Z"/>
        <path class="st21" d="M60.2,109.5c-14.1,5.8-24,3.6-33.3-13.2-9.6,16.6-19.6,18.9-33.6,12.1-9.6-4.6-18.5-24.8,2.6-48,12.2-13.4,27.3-17.4,31-18.2,0,0,0-.2,0-.2,0,0,.1,0,.4,0,.2,0,.4,0,.4,0,0,0,0,0,0,.2,3.7.9,18.8,5.2,30.7,18.8,20.7,23.7,11.6,44.5,1.7,48.5h0Z"/>
        <path class="st21" d="M131.1,180.3c-14.1,5.8-24.1,3.6-33.3-13.2-9.6,16.6-19.6,18.9-33.6,12.1-9.6-4.6-18.5-24.8,2.6-48,12.2-13.4,27.3-17.4,31-18.2,0-.1,0-.2,0-.2,0,0,.1,0,.4,0,.2,0,.4,0,.4,0,0,0,0,0,0,.2,3.7.9,18.8,5.2,30.7,18.8,20.7,23.7,11.5,44.5,1.7,48.5h0Z"/>
        <path class="st21" d="M-10.7,180.3c-14.1,5.8-24.1,3.6-33.3-13.2-9.6,16.6-19.6,18.9-33.6,12.1-9.6-4.6-18.5-24.8,2.6-48,12.2-13.4,27.3-17.4,31-18.2,0-.1,0-.2,0-.2,0,0,.1,0,.4,0,.2,0,.4,0,.4,0,0,0,0,0,0,.2,3.7.9,18.8,5.2,30.7,18.8,20.7,23.7,11.5,44.4,1.7,48.5Z"/>
      </g>
    </pattern>
    <pattern id="_新規パターンスウォッチ_41" data-name=" 新規パターンスウォッチ 41" x="0" y="0" width="141.7" height="141.7" patternTransform="translate(13993.7 82.9) rotate(147.8) scale(.5 -.5)" patternUnits="userSpaceOnUse" viewBox="0 0 141.7 141.7">
      <g>
        <rect class="st0" width="141.7" height="141.7"/>
        <rect class="st0" width="141.7" height="141.7"/>
        <polygon class="st3" points="146.4 39.4 158.3 15.1 185.2 11.2 165.8 -7.7 170.3 -34.4 146.4 -21.8 122.3 -34.4 126.9 -7.7 107.5 11.2 134.4 15.1 146.4 39.4"/>
        <polygon class="st3" points="4.6 39.4 16.6 15.1 43.4 11.2 24 -7.7 28.6 -34.4 4.6 -21.8 -19.4 -34.4 -14.8 -7.7 -34.2 11.2 -7.4 15.1 4.6 39.4"/>
        <polygon class="st3" points="75.5 110.3 87.5 86 114.3 82.1 94.9 63.1 99.5 36.4 75.5 49 51.5 36.4 56.1 63.1 36.7 82.1 63.5 86 75.5 110.3"/>
        <polygon class="st3" points="146.4 181.1 158.3 156.8 185.2 152.9 165.8 134 170.3 107.3 146.4 119.9 122.3 107.3 126.9 134 107.5 152.9 134.4 156.8 146.4 181.1"/>
        <polygon class="st3" points="4.6 181.1 16.6 156.8 43.4 152.9 24 134 28.6 107.3 4.6 119.9 -19.4 107.3 -14.8 134 -34.2 152.9 -7.4 156.8 4.6 181.1"/>
      </g>
    </pattern>
  </defs>
  <g id="_背景カラー">
    <rect class="st9" x="-107.5" y="-29.7" width="1372.8" height="1943.4"/>
  </g>
  <g id="_背景丸">
    <rect class="st12" x="-140.7" y="-61.3" width="1438.4" height="2024.8"/>
  </g>
  <g id="_集中線" class="st16">
    <line class="st0" x1="2056.9" y1="-1506.2" x2="1072" y2="146.7"/>
    <polygon class="st10" points="2056.9 -1506.2 1811.1 -1092.8 1565 -679.5 1318.5 -266.4 1072 146.7 1318 -266.6 1564.1 -680 1810.3 -1093.1 2056.9 -1506.2"/>
    <line class="st0" x1="87.3" y1="1799.6" x2="-897.5" y2="3452.4"/>
    <polygon class="st10" points="87.3 1799.6 -158.7 2213.1 -404.7 2626.5 -651 3039.6 -897.5 3452.4 -651.7 3039.1 -405.7 2625.8 -159.2 2212.7 87.3 1799.6"/>
    <line class="st0" x1="1643" y1="-975.3" x2="934.1" y2="323.6"/>
    <polygon class="st10" points="1643 -975.3 1554.7 -812.8 1466.2 -650.3 1289.1 -325.5 1111.7 -1 1022.9 161.5 934.1 323.6 1022.4 161.1 1111 -1.2 1288.1 -326 1465.7 -650.8 1554.2 -813 1643 -975.3"/>
    <line class="st0" x1="225.2" y1="1622.7" x2="-483.7" y2="2921.8"/>
    <polygon class="st10" points="225.2 1622.7 136.9 1785.2 48.3 1947.7 -128.8 2272.5 -306.4 2597 -394.9 2759.6 -483.7 2921.8 -395.4 2759.3 -306.8 2596.8 -129.7 2272 47.6 1947.2 136.4 1785 225.2 1622.7"/>
    <line class="st0" x1="1640.7" y1="-787.4" x2="933.4" y2="386.3"/>
    <polygon class="st10" points="1640.7 -787.4 1552.3 -640.7 1464 -494 1287.4 -200.3 1110.5 93.1 1022 239.8 933.4 386.3 1021.5 239.3 1109.8 92.6 1286.4 -200.8 1463.5 -494.2 1551.9 -641 1640.7 -787.4"/>
    <line class="st0" x1="225.9" y1="1560" x2="-481.3" y2="2733.9"/>
    <polygon class="st10" points="225.9 1560 137.8 1706.9 49.5 1853.7 -127.1 2147.3 -304.2 2440.8 -392.8 2587.2 -481.3 2733.9 -393 2587 -304.7 2440.3 -128.1 2146.6 48.8 1853.4 137.4 1706.7 225.9 1560"/>
    <line class="st0" x1="1482.4" y1="-913.3" x2="880.5" y2="344.4"/>
    <polygon class="st10" points="1482.4 -913.3 1407.5 -756.1 1332.4 -598.8 1182.1 -284.4 1031.3 30.1 956.1 187.1 880.5 344.4 955.7 186.9 1030.8 29.7 1181.1 -284.8 1331.7 -599.1 1407.1 -756.3 1482.4 -913.3"/>
    <line class="st0" x1="278.8" y1="1602.1" x2="-323.1" y2="2859.8"/>
    <polygon class="st10" points="278.8 1602.1 203.7 1759.4 128.5 1916.6 -21.8 2231.1 -172.3 2545.6 -247.7 2702.6 -323.1 2859.8 -248.2 2702.4 -173.1 2545.1 -22.8 2230.6 128 1916.4 203.2 1759.1 278.8 1602.1"/>
    <line class="st0" x1="1674.2" y1="-1506.4" x2="944.4" y2="146.7"/>
    <polygon class="st10" points="1674.2 -1506.4 1492 -1092.8 1309.9 -679.5 1127.3 -266.4 944.4 146.7 1126.6 -266.6 1308.7 -680 1491.3 -1093.3 1674.2 -1506.4"/>
    <line class="st0" x1="214.9" y1="1799.6" x2="-514.8" y2="3452.7"/>
    <polygon class="st10" points="214.9 1799.6 32.8 2213.1 -149.4 2626.5 -332 3039.6 -514.8 3452.7 -332.7 3039.3 -150.6 2626 32.1 2212.9 214.9 1799.6"/>
    <line class="st0" x1="1279.2" y1="-990.6" x2="812.8" y2="318.5"/>
    <polygon class="st10" points="1279.2 -990.6 1221.1 -826.9 1162.9 -663.2 1046.6 -335.8 929.8 -8.6 871.4 155.1 812.8 318.5 870.9 154.8 929.1 -8.9 1045.4 -336.3 1162.2 -663.5 1220.6 -827.2 1279.2 -990.6"/>
    <line class="st0" x1="346.5" y1="1627.7" x2="-119.9" y2="2936.9"/>
    <polygon class="st10" points="346.5 1627.7 288.4 1791.4 230.2 1955.1 113.9 2282.6 -2.9 2609.7 -61.3 2773.4 -119.9 2936.9 -61.8 2773.2 -3.6 2609.5 112.7 2282.3 229.5 1954.9 287.9 1791.4 346.5 1627.7"/>
    <line class="st0" x1="1522.7" y1="-1250.8" x2="893.9" y2="231.9"/>
    <polygon class="st10" points="1522.7 -1250.8 1365.9 -880.1 1208.9 -509.3 1051.6 -138.6 893.9 231.9 1050.9 -138.8 1207.9 -509.6 1365.2 -880.3 1522.7 -1250.8"/>
    <line class="st0" x1="265.4" y1="1714.6" x2="-363.3" y2="3197.1"/>
    <polygon class="st10" points="265.4 1714.6 108.4 2085.3 -48.6 2456.1 -205.8 2826.6 -363.3 3197.1 -206.6 2826.3 -49.6 2455.6 107.7 2085.1 265.4 1714.6"/>
    <line class="st0" x1="1130.4" y1="-1157.5" x2="763.2" y2="263"/>
    <polygon class="st10" points="1130.4 -1157.5 1084.9 -979.9 1039 -802.3 947.3 -447.1 855.4 -92.2 809.4 85.4 763.2 263 808.9 85.4 854.7 -92.2 946.3 -447.3 1038.2 -802.5 1084.2 -979.9 1130.4 -1157.5"/>
    <line class="st0" x1="396.1" y1="1683.5" x2="28.9" y2="3103.7"/>
    <polygon class="st10" points="396.1 1683.5 350.4 1861.1 304.7 2038.7 213 2393.8 121.1 2748.8 75.1 2926.4 28.9 3103.7 74.4 2926.1 120.4 2748.5 212 2393.4 303.9 2038.4 349.9 1860.8 396.1 1683.5"/>
    <line class="st0" x1="1422.6" y1="-1424.3" x2="860.6" y2="174"/>
    <polygon class="st10" points="1422.6 -1424.3 1282.6 -1024.6 1142.1 -624.9 1001.6 -225.5 860.6 174 1000.9 -225.7 1141.2 -625.4 1281.9 -1024.9 1422.6 -1424.3"/>
    <line class="st0" x1="298.7" y1="1772.3" x2="-263.3" y2="3370.8"/>
    <polygon class="st10" points="298.7 1772.3 158.4 2172.2 18.2 2571.7 -122.6 2971.4 -263.3 3370.8 -123.3 2971.1 17.2 2571.4 157.7 2172 298.7 1772.3"/>
    <line class="st0" x1="1083.2" y1="-668.5" x2="747.4" y2="426"/>
    <polygon class="st10" points="1083.2 -668.5 1041.6 -531.6 999.7 -394.9 915.9 -121.1 831.9 152.4 789.8 289.1 747.4 426 789.3 289.1 831.2 152.2 915 -121.4 999 -395.2 1041.1 -531.8 1083.2 -668.5"/>
    <line class="st0" x1="411.9" y1="1520.5" x2="76.1" y2="2615"/>
    <polygon class="st10" points="411.9 1520.5 370 1657.4 328.1 1794.1 244.4 2067.9 160.3 2341.4 118.2 2478.1 76.1 2615 117.7 2478.1 159.6 2341.2 243.4 2067.6 327.4 1794.1 369.5 1657.2 411.9 1520.5"/>
    <line class="st0" x1="1256" y1="-1165.6" x2="805.1" y2="260.1"/>
    <polygon class="st10" points="1256 -1165.6 1143.5 -809.2 1031.1 -452.6 918.1 -96.2 861.6 82.1 805.1 260.1 861.1 81.8 917.4 -96.5 1029.9 -452.8 1142.8 -809.2 1256 -1165.6"/>
    <line class="st0" x1="354.2" y1="1686.1" x2="-96.7" y2="3112.1"/>
    <polygon class="st10" points="354.2 1686.1 242 2042.7 129.5 2399.4 16.5 2755.7 -40 2933.8 -96.7 3112.1 -40.5 2933.8 15.8 2755.5 128.3 2398.9 241.2 2042.5 354.2 1686.1"/>
    <line class="st0" x1="951.4" y1="-1912.1" x2="703.6" y2="11.5"/>
    <polygon class="st10" points="951.4 -1912.1 889.6 -1431.3 827.9 -950.4 765.9 -469.4 703.6 11.5 765.2 -469.6 826.9 -950.4 888.9 -1431.3 951.4 -1912.1"/>
    <line class="st0" x1="455.7" y1="1935" x2="208" y2="3858.6"/>
    <polygon class="st10" points="455.7 1935 394.2 2415.9 332.4 2896.9 270.4 3377.8 208 3858.6 269.7 3377.5 331.5 2896.7 393.5 2415.9 455.7 1935"/>
    <line class="st0" x1="963.1" y1="-799.2" x2="707.5" y2="382.4"/>
    <polygon class="st10" points="963.1 -799.2 931.5 -651.3 899.7 -503.6 835.8 -208.2 771.9 87.1 739.8 234.8 707.5 382.4 739.1 234.8 771.1 86.9 834.8 -208.5 898.9 -503.8 931 -651.5 963.1 -799.2"/>
    <line class="st0" x1="451.9" y1="1563.8" x2="196.2" y2="2745.4"/>
    <polygon class="st10" points="451.9 1563.8 420.3 1711.7 388.2 1859.4 324.5 2154.7 260.4 2450.1 228.3 2597.8 196.2 2745.4 227.8 2597.8 259.7 2450.1 323.6 2154.5 387.5 1859.2 419.5 1711.5 451.9 1563.8"/>
    <line class="st0" x1="1000.9" y1="-1597.4" x2="720.2" y2="116.3"/>
    <polygon class="st10" points="1000.9 -1597.4 931 -1168.7 860.9 -740.3 790.5 -312.1 720.2 116.3 789.8 -312.1 859.9 -740.5 930.3 -1168.9 1000.9 -1597.4"/>
    <line class="st0" x1="439.2" y1="1830" x2="158.4" y2="3543.6"/>
    <polygon class="st10" points="439.2 1830 369.5 2258.4 299.4 2687 229 3115.2 158.4 3543.6 228.3 3115.2 298.4 2686.8 368.8 2258.4 439.2 1830"/>
    <line class="st0" x1="899.2" y1="-1072" x2="686.2" y2="291.5"/>
    <polygon class="st10" points="899.2 -1072 872.9 -901.6 846.3 -731.2 793.2 -390.1 739.8 -49.3 713 121.1 686.2 291.5 712.5 121.1 739.1 -49.6 792.2 -390.4 845.6 -731.2 872.1 -901.6 899.2 -1072"/>
    <line class="st0" x1="473.2" y1="1655" x2="260.1" y2="3018.3"/>
    <polygon class="st10" points="473.2 1655 446.8 1825.4 420.3 1995.8 367.1 2336.6 313.8 2677.5 287.2 2848.1 260.1 3018.3 286.5 2847.9 313 2677.5 366.2 2336.6 419.5 1995.8 446.4 1825.4 473.2 1655"/>
    <line class="st0" x1="786.7" y1="-1050" x2="648.6" y2="298.7"/>
    <polygon class="st10" points="786.7 -1050 769.7 -881.3 752.5 -712.8 718.2 -375.5 683.5 -38.3 666.3 130.2 648.6 298.7 665.6 130.2 682.8 -38.5 717 -375.5 751.7 -712.8 769.2 -881.5 786.7 -1050"/>
    <line class="st0" x1="510.7" y1="1647.6" x2="372.6" y2="2996.3"/>
    <polygon class="st10" points="510.7 1647.6 493.7 1816.1 476.5 1984.8 442.3 2322 407.6 2659.3 390.1 2827.8 372.6 2996.3 389.6 2827.8 406.9 2659 441.1 2321.8 475.8 1984.8 493 1816.1 510.7 1647.6"/>
    <line class="st0" x1="624.2" y1="-2103.6" x2="594.5" y2="-52.4"/>
    <polygon class="st10" points="624.2 -2103.6 617 -1590.7 609.8 -1078 602.4 -565.1 594.5 -52.4 601.4 -565.1 608.9 -1078 616.3 -1590.7 624.2 -2103.6"/>
    <line class="st0" x1="564.8" y1="1998.7" x2="535.1" y2="4049.8"/>
    <polygon class="st10" points="564.8 1998.7 557.9 2511.6 550.5 3024.3 543 3537.2 535.1 4049.8 542.1 3537.2 549.5 3024.3 556.9 2511.6 564.8 1998.7"/>
    <line class="st0" x1="693.8" y1="-2007.1" x2="617.7" y2="-20.1"/>
    <polygon class="st10" points="693.8 -2007.1 675.2 -1510.2 656.3 -1013.6 637.1 -517 617.7 -20.1 636.4 -517 655.3 -1013.6 674.4 -1510.5 693.8 -2007.1"/>
    <line class="st0" x1="541.6" y1="1966.6" x2="465.5" y2="3953.4"/>
    <polygon class="st10" points="541.6 1966.6 522.9 2463.3 504 2960.1 484.9 3456.7 465.5 3953.4 484.2 3456.7 503.1 2959.9 522.2 2463.3 541.6 1966.6"/>
    <line class="st0" x1="380.1" y1="-1895.6" x2="513.1" y2="17"/>
    <polygon class="st10" points="380.1 -1895.6 413.8 -1417.4 447.3 -939.4 480.3 -461.2 513.1 17 479.6 -461.2 446.1 -939.2 413.1 -1417.4 380.1 -1895.6"/>
    <line class="st0" x1="646.2" y1="1929.5" x2="779.3" y2="3841.8"/>
    <polygon class="st10" points="646.2 1929.5 679.7 2407.5 713.2 2885.7 746.2 3363.9 779.3 3841.8 745.5 3363.9 712 2885.7 679 2407.5 646.2 1929.5"/>
    <line class="st0" x1="597.4" y1="-945.9" x2="585.6" y2="333.4"/>
    <polygon class="st10" points="597.4 -945.9 596.2 -786 594.7 -626.1 592.1 -306.1 588.8 13.6 587.3 173.5 585.6 333.4 586.8 173.5 588 13.6 590.9 -306.1 594 -626.1 595.7 -786 597.4 -945.9"/>
    <line class="st0" x1="573.7" y1="1612.9" x2="562" y2="2892.4"/>
    <polygon class="st10" points="573.7 1612.9 572.5 1772.8 571.3 1932.6 568.4 2252.6 565.3 2572.4 563.6 2732.3 562 2892.4 563.1 2732.3 564.6 2572.4 567.2 2252.6 570.6 1932.6 572 1772.8 573.7 1612.9"/>
    <line class="st0" x1="480.6" y1="-1728" x2="546.6" y2="72.7"/>
    <polygon class="st10" points="480.6 -1728 497.6 -1277.8 514.3 -827.6 530.6 -377.5 546.6 72.7 529.9 -377.5 513.1 -827.6 496.9 -1277.8 480.6 -1728"/>
    <line class="st0" x1="612.7" y1="1873.5" x2="678.7" y2="3674.3"/>
    <polygon class="st10" points="612.7 1873.5 629.4 2323.7 646.2 2773.9 662.5 3224.1 678.7 3674.3 661.8 3224.1 645 2773.9 628.7 2323.7 612.7 1873.5"/>
    <line class="st0" x1="414" y1="-987" x2="524.4" y2="319.7"/>
    <polygon class="st10" points="414 -987 428.2 -823.6 442 -660.4 469.8 -333.7 497.1 -7 511 156.5 524.4 319.7 510.3 156.5 496.4 -7 468.6 -333.4 441.3 -660.1 427.4 -823.6 414 -987"/>
    <line class="st0" x1="635" y1="1626.5" x2="745.3" y2="2933.3"/>
    <polygon class="st10" points="635 1626.5 649.1 1789.8 663 1953.2 690.7 2279.9 718 2606.6 731.9 2769.8 745.3 2933.3 731.2 2770.1 717.3 2606.6 689.5 2279.9 662.2 1953.2 648.4 1790 635 1626.5"/>
    <line class="st0" x1="97.9" y1="-1119.4" x2="419.1" y2="275.7"/>
    <polygon class="st10" points="97.9 -1119.4 138.3 -944.9 178.5 -770.7 259 -422 339.1 -73.3 379.1 101.2 419.1 275.7 378.6 101.5 338.4 -73 258 -421.7 177.8 -770.4 137.6 -944.9 97.9 -1119.4"/>
    <line class="st0" x1="740.3" y1="1670.6" x2="1061.5" y2="3065.7"/>
    <polygon class="st10" points="740.3 1670.6 780.7 1845 820.9 2019.3 901.3 2368 981.5 2717 1021.7 2891.2 1061.5 3065.7 1021 2891.4 980.8 2717 900.4 2368.2 820.2 2019.5 780.2 1845 740.3 1670.6"/>
    <line class="st0" x1="208" y1="-1480.3" x2="455.7" y2="155.3"/>
    <polygon class="st10" points="208 -1480.3 270.2 -1071.3 332.4 -662.5 394.2 -253.7 455.7 155.3 393.5 -253.5 331.2 -662.3 269.5 -1071.3 208 -1480.3"/>
    <line class="st0" x1="703.6" y1="1791" x2="951.4" y2="3426.6"/>
    <polygon class="st10" points="703.6 1791 765.9 2199.7 828.1 2608.8 889.8 3017.6 951.4 3426.6 889.1 3017.8 826.9 2609 765.2 2200 703.6 1791"/>
    <line class="st0" x1="336.5" y1="-703.9" x2="498.5" y2="414"/>
    <polygon class="st10" points="336.5 -703.9 357.1 -564.1 377.4 -424.4 418.1 -145.1 458.6 134.5 478.7 274.3 498.5 414 478.2 274.5 457.8 134.7 417.2 -144.8 376.7 -424.4 356.6 -564.1 336.5 -703.9"/>
    <line class="st0" x1="660.8" y1="1532.2" x2="822.8" y2="2650.4"/>
    <polygon class="st10" points="660.8 1532.2 681.1 1672 701.5 1811.8 742.2 2091.1 782.6 2370.6 802.7 2510.4 822.8 2650.4 802.2 2510.6 781.9 2370.9 741.2 2091.3 700.8 1811.8 680.7 1672 660.8 1532.2"/>
    <line class="st0" x1="-11" y1="-849.4" x2="382.7" y2="365.7"/>
    <polygon class="st10" points="-11 -849.4 38.5 -697.7 87.8 -545.7 186.4 -242 284.8 61.7 333.9 213.7 382.7 365.7 333.4 214 284.1 62 185.5 -241.7 87.1 -545.5 38 -697.4 -11 -849.4"/>
    <line class="st0" x1="776.4" y1="1580.8" x2="1170.1" y2="2795.7"/>
    <polygon class="st10" points="776.4 1580.8 825.9 1732.6 875.2 1884.3 973.9 2188 1072.2 2492 1121.3 2643.7 1170.1 2795.7 1120.8 2644 1071.5 2492.2 972.9 2188.5 874.5 1884.5 825.5 1732.8 776.4 1580.8"/>
    <line class="st0" x1="-125.7" y1="-1176.8" x2="344.6" y2="256.6"/>
    <polygon class="st10" points="-125.7 -1176.8 -7.9 -818.6 109.8 -460.3 227.4 -102 286 77.3 344.6 256.6 285.5 77.5 226.6 -101.7 108.9 -460 -8.6 -818.3 -125.7 -1176.8"/>
    <line class="st0" x1="814.7" y1="1689.7" x2="1285" y2="3123.1"/>
    <polygon class="st10" points="814.7 1689.7 932.7 2048 1050.4 2406.3 1168 2764.6 1226.6 2943.8 1285 3123.1 1226.1 2944.1 1167.2 2764.8 1049.5 2406.5 932 2048.2 814.7 1689.7"/>
    <line class="st0" x1="-152.7" y1="-790.1" x2="335.5" y2="385.6"/>
    <polygon class="st10" points="-152.7 -790.1 -91.4 -643.1 -30.2 -496.4 91.9 -202.5 214 91.4 274.7 238.4 335.5 385.6 274.3 238.6 213.2 91.7 90.9 -202 -30.9 -495.9 -91.9 -643.1 -152.7 -790.1"/>
    <line class="st0" x1="823.8" y1="1560.9" x2="1312" y2="2736.3"/>
    <polygon class="st10" points="823.8 1560.9 885.1 1707.7 946.1 1854.6 1068.4 2148.5 1190.2 2442.4 1251.2 2589.4 1312 2736.3 1250.8 2589.6 1189.5 2442.7 1067.4 2149 945.4 1854.9 884.6 1707.9 823.8 1560.9"/>
    <line class="st0" x1="-254.4" y1="-1051" x2="301.6" y2="298.4"/>
    <polygon class="st10" points="-254.4 -1051 -184.8 -882.2 -115.1 -713.7 24.2 -376.5 163 -39 232.4 129.7 301.6 298.4 231.9 129.9 162.3 -38.8 23 -376 -115.9 -713.5 -185.3 -882.2 -254.4 -1051"/>
    <line class="st0" x1="857.8" y1="1647.8" x2="1413.8" y2="2997.2"/>
    <polygon class="st10" points="857.8 1647.8 927.4 1816.6 997.1 1985.1 1136.4 2322.3 1275.2 2659.8 1344.6 2828.5 1413.8 2997.2 1344.1 2828.7 1274.5 2660 1135.2 2322.8 996.4 1985.3 926.9 1816.6 857.8 1647.8"/>
    <line class="st0" x1="-545" y1="-1554.8" x2="204.9" y2="130.7"/>
    <polygon class="st10" points="-545 -1554.8 -357.1 -1133.5 -169.7 -712.3 17.7 -290.8 204.9 130.7 17 -290.6 -170.7 -711.8 -357.8 -1133.3 -545 -1554.8"/>
    <line class="st0" x1="954.5" y1="1815.8" x2="1704.3" y2="3501"/>
    <polygon class="st10" points="954.5 1815.8 1142.3 2236.8 1330 2658.1 1517.2 3079.5 1704.3 3501 1516.4 3079.8 1329 2658.6 1141.6 2237.3 954.5 1815.8"/>
    <line class="st0" x1="-493.8" y1="-1803.9" x2="221.9" y2="47.4"/>
    <polygon class="st10" points="-493.8 -1803.9 -314.5 -1341.3 -135.5 -878.4 43.3 -415.5 221.9 47.4 42.6 -415.3 -136.4 -877.9 -315.2 -1341 -493.8 -1803.9"/>
    <line class="st0" x1="937.5" y1="1898.9" x2="1653.1" y2="3750.2"/>
    <polygon class="st10" points="937.5 1898.9 1116.7 2361.5 1295.8 2824.4 1474.5 3287.3 1653.1 3750.2 1473.8 3287.5 1294.8 2824.7 1116 2361.8 937.5 1898.9"/>
    <line class="st0" x1="-333.7" y1="-686.9" x2="275.2" y2="419.8"/>
    <polygon class="st10" points="-333.7 -686.9 -257.3 -548.8 -181 -410.5 -28.7 -133.8 123.2 142.9 199.4 281.2 275.2 419.8 198.9 281.7 122.8 143.3 -29.7 -133.3 -181.7 -410 -257.8 -548.6 -333.7 -686.9"/>
    <line class="st0" x1="884.1" y1="1526.5" x2="1493" y2="2633.4"/>
    <polygon class="st10" points="884.1 1526.5 960.5 1664.8 1036.6 1803.2 1189 2079.6 1341 2356.5 1417.1 2494.8 1493 2633.4 1416.6 2495.1 1340.3 2356.7 1188.1 2080.3 1036.1 1803.4 960 1665.1 884.1 1526.5"/>
    <line class="st0" x1="-327.4" y1="-1159.1" x2="277.4" y2="262.5"/>
    <polygon class="st10" points="-327.4 -1159.1 -175.7 -803.7 -24.4 -448.5 126.6 -93.1 277.4 262.5 125.9 -92.9 -25.6 -448.1 -176.4 -803.5 -327.4 -1159.1"/>
    <line class="st0" x1="881.9" y1="1684" x2="1486.8" y2="3105.4"/>
    <polygon class="st10" points="881.9 1684 1033.4 2039.1 1184.7 2394.3 1335.7 2750 1486.8 3105.4 1335 2750.2 1183.8 2394.8 1032.7 2039.4 881.9 1684"/>
    <line class="st0" x1="-768.1" y1="-1045.4" x2="130.4" y2="300.4"/>
    <polygon class="st10" points="-768.1 -1045.4 -543.1 -709.2 -318.3 -372.9 -93.8 -36.4 130.4 300.4 -94.6 -35.9 -319.3 -372.2 -543.6 -708.7 -768.1 -1045.4"/>
    <line class="st0" x1="1028.9" y1="1646.2" x2="1927.4" y2="2991.7"/>
    <polygon class="st10" points="1028.9 1646.2 1253.9 1982.2 1478.6 2318.7 1702.9 2655.2 1927.4 2991.7 1702.4 2655.4 1477.7 2319.2 1253.2 1982.7 1028.9 1646.2"/>
    <line class="st0" x1="-255.4" y1="-405.2" x2="301.3" y2="513.6"/>
    <polygon class="st10" points="-255.4 -405.2 -185.5 -290.6 -115.9 -175.7 23.4 53.8 162.5 283.8 231.9 398.7 301.3 513.6 231.4 399 161.8 284.1 22.5 54.6 -116.6 -175.2 -186 -290.3 -255.4 -405.2"/>
    <line class="st0" x1="858" y1="1432.7" x2="1414.7" y2="2351.7"/>
    <polygon class="st10" points="858 1432.7 927.9 1547.3 997.5 1662.2 1136.8 1892 1275.9 2121.7 1345.3 2236.6 1414.7 2351.7 1344.8 2236.8 1275.2 2122 1135.9 1892.4 996.8 1662.7 927.4 1547.8 858 1432.7"/>
    <line class="st0" x1="-402.1" y1="-297" x2="252.5" y2="549.7"/>
    <polygon class="st10" points="-402.1 -297 -320 -191.2 -238.2 -85.5 -74.4 126.1 89 337.9 170.9 443.7 252.5 549.7 170.4 444.2 88.5 338.4 -75.4 126.8 -238.9 -85 -320.5 -191 -402.1 -297"/>
    <line class="st0" x1="906.8" y1="1396.5" x2="1561.4" y2="2243.3"/>
    <polygon class="st10" points="906.8 1396.5 988.9 1502.3 1070.8 1608.1 1234.7 1819.7 1398.2 2031.5 1479.8 2137.3 1561.4 2243.3 1479.3 2137.8 1397.5 2032 1233.8 1820.4 1070.3 1608.6 988.5 1502.5 906.8 1396.5"/>
    <line class="st0" x1="-245.1" y1="-400.2" x2="304.7" y2="515.3"/>
    <polygon class="st10" points="-245.1 -400.2 -176.2 -286 -107.5 -171.6 30.1 57.2 167.5 286.2 236.2 400.9 304.7 515.3 235.7 401.1 167 286.7 29.2 57.9 -108 -171.1 -176.6 -285.5 -245.1 -400.2"/>
    <line class="st0" x1="854.7" y1="1431" x2="1404.4" y2="2346.7"/>
    <polygon class="st10" points="854.7 1431 923.6 1545.4 992.3 1659.8 1130.1 1888.6 1267.3 2117.4 1336 2232.1 1404.4 2346.7 1335.5 2232.3 1266.8 2117.9 1129.2 1889.1 991.8 1660 923.1 1545.6 854.7 1431"/>
    <line class="st0" x1="-412.2" y1="-418.9" x2="249.1" y2="509.3"/>
    <polygon class="st10" points="-412.2 -418.9 -329.3 -303 -246.5 -186.9 -81.1 44.7 84 276.9 166.6 393 249.1 509.3 166.1 393.5 83.5 277.4 -82.1 45.5 -247.3 -186.7 -329.8 -302.5 -412.2 -418.9"/>
    <line class="st0" x1="910.2" y1="1437.2" x2="1571.5" y2="2365.1"/>
    <polygon class="st10" points="910.2 1437.2 993.2 1553.1 1075.8 1668.9 1241.4 1900.8 1406.6 2133 1489.1 2249 1571.5 2365.1 1488.7 2249.3 1405.9 2133.4 1240.5 1901.5 1075.3 1669.4 992.8 1553.3 910.2 1437.2"/>
    <line class="st0" x1="-828.6" y1="-881.7" x2="110.3" y2="354.9"/>
    <polygon class="st10" points="-828.6 -881.7 -593.6 -572.8 -358.8 -263.8 -124.2 45.5 110.3 354.9 -124.7 45.9 -359.7 -263 -594.3 -572.5 -828.6 -881.7"/>
    <line class="st0" x1="1049" y1="1591.6" x2="1987.9" y2="2828.2"/>
    <polygon class="st10" points="1049 1591.6 1284 1900.3 1519.1 2209.6 1753.6 2518.8 1987.9 2828.2 1752.9 2519.3 1518.1 2210.3 1283.6 1900.8 1049 1591.6"/>
    <line class="st0" x1="-936.3" y1="-1026.3" x2="74.4" y2="306.8"/>
    <polygon class="st10" points="-936.3 -1026.3 -683.3 -693.1 -430.6 -360 -178.1 -26.8 74.4 306.8 -178.6 -26.3 -431.5 -359.5 -684 -692.7 -936.3 -1026.3"/>
    <line class="st0" x1="1084.9" y1="1639.7" x2="2095.6" y2="2972.6"/>
    <polygon class="st10" points="1084.9 1639.7 1337.9 1972.6 1590.9 2305.8 1843.4 2639.2 2095.6 2972.6 1842.7 2639.6 1589.9 2306.5 1337.4 1973.1 1084.9 1639.7"/>
    <line class="st0" x1="-530.1" y1="-293.4" x2="209.6" y2="550.9"/>
    <polygon class="st10" points="-530.1 -293.4 -437.5 -188.1 -344.9 -82.6 -159.9 128.5 25.1 339.6 117.5 445.2 209.6 550.9 117 445.6 24.4 340.1 -160.6 129.2 -345.6 -82.1 -438 -187.7 -530.1 -293.4"/>
    <line class="st0" x1="949.7" y1="1395.3" x2="1689.5" y2="2239.7"/>
    <polygon class="st10" points="949.7 1395.3 1042.3 1500.6 1134.9 1606.2 1319.9 1817.3 1504.9 2028.4 1597.3 2134.2 1689.5 2239.7 1596.9 2134.4 1504.2 2028.9 1319.2 1818 1134.2 1606.7 1041.8 1501.1 949.7 1395.3"/>
    <line class="st0" x1="-1298.9" y1="-762.1" x2="-46.4" y2="394.7"/>
    <polygon class="st10" points="-1298.9 -762.1 -985.4 -473.2 -672.3 -184.1 -359.3 105.3 -46.4 394.7 -359.7 105.8 -673 -183.3 -985.8 -472.7 -1298.9 -762.1"/>
    <line class="st0" x1="1205.8" y1="1551.6" x2="2458.2" y2="2708.6"/>
    <polygon class="st10" points="1205.8 1551.6 1519.1 1840.5 1832.4 2129.6 2145.2 2419 2458.2 2708.6 2144.7 2419.5 1831.6 2130.6 1518.6 1841.2 1205.8 1551.6"/>
    <line class="st0" x1="-899.2" y1="-296.8" x2="86.6" y2="550"/>
    <polygon class="st10" points="-899.2 -296.8 -775.7 -191.2 -652.5 -85.5 -405.9 126.1 -159.4 337.9 -36.4 443.7 86.6 550 -36.6 444.2 -160.1 338.4 -406.6 127.1 -652.9 -84.7 -776.2 -190.8 -899.2 -296.8"/>
    <line class="st0" x1="1072.7" y1="1396.5" x2="2058.5" y2="2243.1"/>
    <polygon class="st10" points="1072.7 1396.5 1196 1502.1 1319.5 1607.9 1566 1819.4 1812.3 2031.2 1935.5 2137 2058.5 2243.1 1935 2137.5 1811.8 2031.7 1565.3 1820.2 1318.7 1608.3 1195.7 1502.5 1072.7 1396.5"/>
    <line class="st0" x1="-940.6" y1="-421.5" x2="72.7" y2="508.3"/>
    <polygon class="st10" points="-940.6 -421.5 -813.8 -305.4 -687.2 -189.3 -433.5 43.1 -180.2 275.5 -53.6 391.8 72.7 508.3 -54.1 392.3 -180.7 276.2 -434.4 43.8 -687.6 -188.9 -814.2 -305.2 -940.6 -421.5"/>
    <line class="st0" x1="1086.3" y1="1438.2" x2="2099.9" y2="2368"/>
    <polygon class="st10" points="1086.3 1438.2 1213.4 1554 1340 1670.3 1593.7 1902.5 1847 2135.1 1973.6 2251.4 2099.9 2368 1973.1 2251.9 1846.5 2135.6 1592.8 1903.4 1339.6 1670.8 1213 1554.5 1086.3 1438.2"/>
    <line class="st0" x1="-1046.2" y1="-318.1" x2="37.8" y2="542.8"/>
    <polygon class="st10" points="-1046.2 -318.1 -910.7 -210.9 -775 -103.2 -504.1 111.8 -233.1 327.2 -97.7 434.9 37.8 542.8 -97.9 435.3 -233.6 327.9 -504.5 112.7 -775.5 -102.7 -910.9 -210.4 -1046.2 -318.1"/>
    <line class="st0" x1="1121.5" y1="1403.7" x2="2205.5" y2="2264.6"/>
    <polygon class="st10" points="1121.5 1403.7 1257.2 1511.2 1392.9 1618.6 1663.9 1833.6 1934.8 2049 2070.3 2156.7 2205.5 2264.6 2070 2157.1 1934.3 2049.7 1663.1 1834.5 1392.5 1619.1 1257 1511.4 1121.5 1403.7"/>
    <line class="st0" x1="-1136.2" y1="-161.1" x2="7.6" y2="595"/>
    <polygon class="st10" points="-1136.2 -161.1 -993 -66.8 -849.9 27.5 -563.9 216.6 -277.9 405.7 -135 500.4 7.6 595 -135.5 500.7 -278.4 406.4 -564.4 217.5 -850.4 28.2 -993.3 -66.3 -1136.2 -161.1"/>
    <line class="st0" x1="1151.7" y1="1351.3" x2="2295.5" y2="2107.6"/>
    <polygon class="st10" points="1151.7 1351.3 1294.8 1445.6 1437.7 1540.1 1723.7 1729 2009.7 1918 2152.6 2012.8 2295.5 2107.6 2152.4 2013.3 2009.2 1918.8 1723.2 1729.9 1437.2 1540.6 1294.3 1446.1 1151.7 1351.3"/>
    <line class="st0" x1="-1029.9" y1="-29" x2="43.1" y2="639"/>
    <polygon class="st10" points="-1029.9 -29 -895.6 54.3 -761.6 137.6 -493.1 304.7 -225 471.7 -91 555.2 43.1 639 -91.2 555.7 -225.5 472.4 -493.8 305.6 -761.8 138.3 -896.1 54.8 -1029.9 -29"/>
    <line class="st0" x1="1116.3" y1="1307.2" x2="2189.2" y2="1975.5"/>
    <polygon class="st10" points="1116.3 1307.2 1250.5 1390.5 1384.8 1474.1 1653.1 1640.9 1921.2 1807.9 2055.4 1891.7 2189.2 1975.5 2054.9 1892.2 1920.9 1808.7 1652.4 1641.8 1384.3 1474.5 1250.3 1391 1116.3 1307.2"/>
    <line class="st0" x1="-1115.6" y1="-126.9" x2="14.6" y2="606.5"/>
    <polygon class="st10" points="-1115.6 -126.9 -974.1 -35.4 -832.9 56 -550.3 239.3 -267.8 422.9 -126.6 514.6 14.6 606.5 -126.9 515 -268.1 423.4 -550.7 240.3 -833.4 56.7 -974.6 -35 -1115.6 -126.9"/>
    <line class="st0" x1="1144.7" y1="1339.8" x2="2274.9" y2="2073.4"/>
    <polygon class="st10" points="1144.7 1339.8 1286.2 1431.2 1427.4 1522.9 1710.1 1706.2 1992.5 1889.6 2133.9 1981.5 2274.9 2073.4 2133.4 1981.9 1992.2 1890.3 1709.6 1707.2 1427.2 1523.6 1286 1431.7 1144.7 1339.8"/>
    <line class="st0" x1="-1245.1" y1="286.7" x2="-28.5" y2="744.3"/>
    <polygon class="st10" points="-1245.1 286.7 -1093.1 343.7 -940.9 400.9 -636.7 515 -332.7 629.7 -180.5 686.9 -28.5 744.3 -180.7 687.4 -332.9 630.4 -637.1 516 -941.1 401.6 -1093.1 344.2 -1245.1 286.7"/>
    <line class="st0" x1="1187.8" y1="1201.9" x2="2404.4" y2="1659.6"/>
    <polygon class="st10" points="1187.8 1201.9 1340 1258.9 1492.3 1316.1 1796.5 1430.3 2100.4 1544.9 2252.4 1602.1 2404.4 1659.6 2252.4 1602.6 2100.2 1545.6 1796 1431.5 1492 1316.8 1339.8 1259.4 1187.8 1201.9"/>
    <line class="st0" x1="-1036.1" y1="466.9" x2="41.2" y2="804.4"/>
    <polygon class="st10" points="-1036.1 466.9 -901.4 508.8 -766.6 550.9 -497.4 635.2 -228.1 719.7 -93.4 762 41.2 804.4 -93.6 762.5 -228.3 720.4 -497.6 636.1 -766.9 551.7 -901.6 509.3 -1036.1 466.9"/>
    <line class="st0" x1="1118.2" y1="1141.9" x2="2195.4" y2="1479.3"/>
    <polygon class="st10" points="1118.2 1141.9 1252.9 1183.8 1387.7 1225.9 1656.9 1310.1 1926.2 1394.6 2060.7 1437 2195.4 1479.3 2060.7 1437.4 1925.9 1395.3 1656.7 1311.3 1387.4 1226.6 1252.7 1184.5 1118.2 1141.9"/>
    <line class="st0" x1="-1479.8" y1="549" x2="-106.8" y2="831.7"/>
    <polygon class="st10" points="-1479.8 549 -1308.2 584 -1136.6 619.2 -793.2 689.8 -450 760.6 -278.4 796 -106.8 831.7 -278.6 796.7 -450.2 761.3 -793.4 691 -1136.6 619.9 -1308.2 584.4 -1479.8 549"/>
    <line class="st0" x1="1266.1" y1="1114.6" x2="2639.2" y2="1397.5"/>
    <polygon class="st10" points="1266.1 1114.6 1437.9 1149.8 1609.5 1184.9 1952.7 1255.6 2296 1326.4 2467.6 1361.8 2639.2 1397.5 2467.6 1362.3 2296 1327.1 1952.5 1256.5 1609.3 1185.7 1437.7 1150.2 1266.1 1114.6"/>
    <line class="st0" x1="-1326.4" y1="551.4" x2="-55.8" y2="832.6"/>
    <polygon class="st10" points="-1326.4 551.4 -1167.5 586.4 -1008.6 621.3 -690.7 691.4 -373.1 762 -214.5 797.2 -55.8 832.6 -214.5 797.7 -373.4 762.8 -691.2 692.6 -1008.8 622 -1167.5 586.8 -1326.4 551.4"/>
    <line class="st0" x1="1214.9" y1="1113.9" x2="2485.5" y2="1394.8"/>
    <polygon class="st10" points="1214.9 1113.9 1373.8 1148.6 1532.7 1183.8 1850.6 1253.9 2168.2 1324.2 2326.8 1359.4 2485.5 1394.8 2326.8 1359.9 2167.9 1325 1850.1 1254.8 1532.5 1184.5 1373.8 1149 1214.9 1113.9"/>
    <line class="st0" x1="-938" y1="736.9" x2="73.7" y2="894.4"/>
    <polygon class="st10" points="-938 736.9 -811.4 756.3 -685 775.9 -432 815.2 -179 854.7 -52.7 874.5 73.7 894.4 -52.7 875 -179.3 855.4 -432 816.4 -685 776.6 -811.4 757 -938 736.9"/>
    <line class="st0" x1="1085.6" y1="1051.9" x2="2097.3" y2="1209.4"/>
    <polygon class="st10" points="1085.6 1051.9 1212 1071.3 1338.6 1090.9 1591.3 1130.1 1844.3 1169.6 1970.7 1189.5 2097.3 1209.4 1970.7 1190 1844.3 1170.3 1591.3 1131.3 1338.4 1091.6 1212 1072 1085.6 1051.9"/>
    <line class="st0" x1="-1653.1" y1="609.3" x2="-164.7" y2="852"/>
    <polygon class="st10" points="-1653.1 609.3 -1281 669.7 -908.8 730.2 -536.6 791 -350.6 821.4 -164.7 852 -350.6 821.9 -536.8 791.7 -909 731.2 -1281.2 670.4 -1653.1 609.3"/>
    <line class="st0" x1="1324" y1="1094.5" x2="2812.5" y2="1336.9"/>
    <polygon class="st10" points="1324 1094.5 1696.2 1154.8 2068.3 1215.1 2440.5 1275.9 2626.5 1306.3 2812.5 1336.9 2626.5 1307 2440.3 1276.6 2068.1 1216.3 1695.9 1155.5 1324 1094.5"/>
    <line class="st0" x1="-1636.4" y1="664.4" x2="-158.9" y2="870.2"/>
    <polygon class="st10" points="-1636.4 664.4 -1451.6 690 -1266.8 715.6 -897.5 766.8 -528.2 818.5 -343.7 844.4 -158.9 870.2 -343.7 844.8 -528.5 819.2 -897.8 768 -1267.1 716.3 -1451.6 690.5 -1636.4 664.4"/>
    <line class="st0" x1="1318.3" y1="1076" x2="2795.7" y2="1281.9"/>
    <polygon class="st10" points="1318.3 1076 1503 1101.7 1687.8 1127.3 2057.1 1178.5 2426.4 1230.2 2610.9 1255.8 2795.7 1281.9 2610.9 1256.5 2426.2 1230.9 2056.9 1179.4 1687.6 1128 1503 1102.1 1318.3 1076"/>
    <line class="st0" x1="-918.8" y1="915.9" x2="80.2" y2="954"/>
    <polygon class="st10" points="-918.8 915.9 -793.9 920.2 -669.2 925 -419.3 934.4 -169.7 944.2 -44.8 949 80.2 954 -44.8 949.7 -169.7 944.9 -419.3 935.6 -669.2 925.7 -794.1 921 -918.8 915.9"/>
    <line class="st0" x1="1079.2" y1="992.3" x2="2078.2" y2="1030.6"/>
    <polygon class="st10" points="1079.2 992.3 1204.1 996.8 1329 1001.4 1578.7 1010.9 1828.5 1020.5 1953.5 1025.5 2078.2 1030.6 1953.2 1026 1828.5 1021.2 1578.7 1011.9 1329 1002.3 1204.1 997.3 1079.2 992.3"/>
    <line class="st0" x1="-2164.4" y1="1393.9" x2="-335.1" y2="1113.4"/>
    <polygon class="st10" points="-2164.4 1393.9 -1707 1323.3 -1249.8 1253.2 -792.5 1183.3 -335.1 1113.4 -792.2 1184 -1249.6 1254.1 -1707 1324 -2164.4 1393.9"/>
    <line class="st0" x1="1494.4" y1="832.9" x2="3323.7" y2="552.6"/>
    <polygon class="st10" points="1494.4 832.9 1951.6 762.5 2408.9 692.2 2866.3 622.3 3323.7 552.6 2866.3 623 2409.2 693.3 1951.8 763.2 1494.4 832.9"/>
    <line class="st0" x1="-912.9" y1="1201.2" x2="82.1" y2="1049.2"/>
    <polygon class="st10" points="-912.9 1201.2 -788.6 1181.8 -664.2 1162.7 -415.5 1124.6 -166.6 1086.8 -42.4 1067.9 82.1 1049.2 -42.1 1068.4 -166.6 1087.5 -415.3 1125.6 -664.2 1163.4 -788.4 1182.3 -912.9 1201.2"/>
    <line class="st0" x1="1077.2" y1="897.3" x2="2072.2" y2="745.3"/>
    <polygon class="st10" points="1077.2 897.3 1201.5 877.9 1325.9 858.7 1574.6 820.7 1823.5 782.9 1947.7 764 2072.2 745.3 1948 764.4 1823.5 783.6 1574.8 821.9 1325.9 859.7 1201.7 878.6 1077.2 897.3"/>
    <line class="st0" x1="-1585.2" y1="1108.8" x2="-141.9" y2="1018.4"/>
    <polygon class="st10" points="-1585.2 1108.8 -1404.7 1097.4 -1224.5 1085.9 -863.5 1063.1 -502.9 1040.6 -322.4 1029.4 -141.9 1018.4 -322.4 1030.1 -502.6 1041.3 -863.5 1064.3 -1224.2 1086.6 -1404.7 1097.8 -1585.2 1108.8"/>
    <line class="st0" x1="1301.3" y1="927.9" x2="2744.5" y2="837.4"/>
    <polygon class="st10" points="1301.3 927.9 1481.7 916.4 1662 904.9 2022.9 882.2 2383.6 859.7 2564 848.4 2744.5 837.4 2564 848.9 2383.8 860.4 2022.9 883.1 1662.2 905.6 1481.7 916.9 1301.3 927.9"/>
    <line class="st0" x1="-1561.2" y1="1196.4" x2="-134" y2="1047.6"/>
    <polygon class="st10" points="-1561.2 1196.4 -1382.7 1177.5 -1204.4 1158.9 -847.5 1121.5 -490.9 1084.4 -312.4 1066 -134 1047.6 -312.4 1066.5 -490.7 1085.1 -847.5 1122.5 -1204.4 1159.6 -1382.7 1178 -1561.2 1196.4"/>
    <line class="st0" x1="1293.4" y1="898.7" x2="2720.5" y2="750.1"/>
    <polygon class="st10" points="1293.4 898.7 1471.7 880 1650 861.1 2006.8 823.8 2363.7 786.9 2542 768.3 2720.5 750.1 2542 769 2363.7 787.6 2006.8 825 1650.2 862.1 1471.7 880.5 1293.4 898.7"/>
    <line class="st0" x1="-1823.1" y1="1451.6" x2="-221.2" y2="1132.5"/>
    <polygon class="st10" points="-1823.1 1451.6 -1422.6 1371.4 -1022.2 1291.5 -621.8 1212 -221.2 1132.5 -621.6 1212.7 -1022 1292.6 -1422.6 1372.1 -1823.1 1451.6"/>
    <line class="st0" x1="1380.5" y1="813.7" x2="2982.4" y2="494.9"/>
    <polygon class="st10" points="1380.5 813.7 1780.9 733.6 2181.3 653.6 2582 574.2 2982.4 494.9 2582 574.9 2181.6 654.8 1781.1 734.3 1380.5 813.7"/>
    <line class="st0" x1="-1268.3" y1="1495.1" x2="-36.4" y2="1147.1"/>
    <polygon class="st10" points="-1268.3 1495.1 -1114.4 1451.3 -960.2 1407.8 -652.5 1320.7 -344.4 1233.8 -190.3 1190.5 -36.4 1147.1 -190.3 1190.9 -344.2 1234.5 -652.2 1321.6 -960.2 1408.5 -1114.1 1451.8 -1268.3 1495.1"/>
    <line class="st0" x1="1195.7" y1="799.1" x2="2427.6" y2="451.4"/>
    <polygon class="st10" points="1195.7 799.1 1349.6 755.6 1503.5 711.8 1811.5 624.7 2119.6 538 2273.5 494.5 2427.6 451.4 2273.7 495.2 2119.6 538.7 1811.8 625.9 1503.7 712.5 1349.6 756.1 1195.7 799.1"/>
    <line class="st0" x1="-1056.5" y1="1576.5" x2="34.2" y2="1174.2"/>
    <polygon class="st10" points="-1056.5 1576.5 -920.3 1526 -783.8 1475.5 -511.2 1374.7 -238.6 1274.5 -102.2 1224.2 34.2 1174.2 -102 1224.7 -238.4 1275.2 -511 1375.9 -783.6 1476.2 -920 1526.5 -1056.5 1576.5"/>
    <line class="st0" x1="1125.1" y1="772.1" x2="2215.8" y2="370"/>
    <polygon class="st10" points="1125.1 772.1 1261.3 721.6 1397.7 671.3 1670.3 570.6 1942.9 470 2079.4 420 2215.8 370 2079.6 420.5 1943.2 470.8 1670.6 571.5 1398 671.8 1261.5 722.1 1125.1 772.1"/>
    <line class="st0" x1="-830.8" y1="1576.7" x2="109.6" y2="1174.4"/>
    <polygon class="st10" points="-830.8 1576.7 -713.5 1526 -596 1475.7 -360.9 1375 -125.7 1274.5 -8.2 1224.4 109.6 1174.4 -7.9 1224.9 -125.4 1275.2 -360.5 1375.9 -595.7 1476.5 -713.2 1526.5 -830.8 1576.7"/>
    <line class="st0" x1="1049.7" y1="772.1" x2="1990.1" y2="369.8"/>
    <polygon class="st10" points="1049.7 772.1 1167.2 721.6 1284.8 671.1 1519.8 570.3 1755.1 470 1872.6 419.8 1990.1 369.8 1872.8 420.3 1755.3 470.8 1520.3 571.3 1285 671.8 1167.5 722.1 1049.7 772.1"/>
    <line class="st0" x1="-1948.7" y1="1965.2" x2="-263" y2="1303.9"/>
    <polygon class="st10" points="-1948.7 1965.2 -1527.5 1799.6 -1106.2 1633.9 -684.8 1468.8 -263 1303.9 -684.5 1469.5 -1105.8 1634.9 -1527.2 1800 -1948.7 1965.2"/>
    <line class="st0" x1="1422.4" y1="642.6" x2="3108" y2="-18.7"/>
    <polygon class="st10" points="1422.4 642.6 1843.8 476.7 2265.1 311.4 2686.6 146.2 3108 -18.7 2686.8 146.9 2265.6 312.3 1844.1 477.5 1422.4 642.6"/>
    <line class="st0" x1="-1510.2" y1="1753.6" x2="-117.1" y2="1233.3"/>
    <polygon class="st10" points="-1510.2 1753.6 -1336.2 1688.3 -1162 1623.2 -813.8 1493 -465.5 1363 -291.3 1298.2 -117.1 1233.3 -291 1298.6 -465.3 1363.7 -813.5 1493.9 -1161.8 1623.9 -1336 1688.8 -1510.2 1753.6"/>
    <line class="st0" x1="1276.4" y1="713" x2="2669.6" y2="192.7"/>
    <polygon class="st10" points="1276.4 713 1450.4 647.6 1624.6 582.5 1972.9 452.3 2321.1 322.4 2495.3 257.5 2669.6 192.7 2495.6 258 2321.3 323.1 1973.1 453.5 1624.9 583.3 1450.6 648.4 1276.4 713"/>
    <line class="st0" x1="-1120.4" y1="1846.5" x2="12.9" y2="1264.2"/>
    <polygon class="st10" points="-1120.4 1846.5 -978.7 1773.5 -837.2 1700.5 -553.8 1555 -270.5 1409.4 -128.8 1336.7 12.9 1264.2 -128.5 1337.4 -270.2 1410.2 -553.4 1555.9 -836.7 1701.2 -978.4 1774 -1120.4 1846.5"/>
    <line class="st0" x1="1146.4" y1="682.1" x2="2279.7" y2="100"/>
    <polygon class="st10" points="1146.4 682.1 1287.9 609.1 1429.6 536.1 1712.7 390.6 1996.1 245.1 2137.8 172.5 2279.7 100 2138 173 1996.5 245.8 1713.2 391.5 1429.8 536.8 1288.1 609.6 1146.4 682.1"/>
    <line class="st0" x1="-1018.9" y1="1993" x2="46.9" y2="1313"/>
    <polygon class="st10" points="-1018.9 1993 -885.8 1907.7 -752.5 1822.8 -486.3 1652.6 -219.7 1482.7 -86.4 1398 46.9 1313 -86.2 1398.4 -219.5 1483.4 -485.6 1653.6 -752.3 1823.3 -885.6 1908.2 -1018.9 1993"/>
    <line class="st0" x1="1112.4" y1="633.3" x2="2178.2" y2="-46.7"/>
    <polygon class="st10" points="1112.4 633.3 1245.5 548.1 1378.8 462.9 1645 292.9 1911.6 123 2044.9 38 2178.2 -46.7 2045.1 38.5 1911.8 123.7 1645.7 293.9 1379.1 463.6 1245.7 548.5 1112.4 633.3"/>
    <line class="st0" x1="-1237.6" y1="2049.4" x2="-26.1" y2="1331.9"/>
    <polygon class="st10" points="-1237.6 2049.4 -1086.4 1959.4 -934.9 1869.7 -632.1 1690.2 -329.1 1510.9 -177.6 1421.4 -26.1 1331.9 -177.4 1421.9 -328.9 1511.6 -631.6 1691.1 -934.6 1870.4 -1086.1 1959.9 -1237.6 2049.4"/>
    <line class="st0" x1="1185.4" y1="614.4" x2="2397" y2="-102.9"/>
    <polygon class="st10" points="1185.4 614.4 1336.7 524.6 1488.2 434.9 1791 255.1 2094 76.1 2245.5 -13.7 2397 -102.9 2245.7 -13.2 2094.2 76.6 1791.4 256.1 1488.4 435.3 1336.9 525.1 1185.4 614.4"/>
    <line class="st0" x1="-803.2" y1="1687.1" x2="118.7" y2="1211"/>
    <polygon class="st10" points="-803.2 1687.1 -688.1 1627.2 -572.8 1567.6 -342.5 1448.7 -112 1329.7 3.3 1270.4 118.7 1211 3.6 1270.9 -111.5 1330.5 -342 1449.7 -572.5 1568.4 -687.9 1627.7 -803.2 1687.1"/>
    <line class="st0" x1="1040.6" y1="735.2" x2="1962.6" y2="259.2"/>
    <polygon class="st10" points="1040.6 735.2 1155.8 675.4 1270.9 615.8 1501.4 496.9 1731.8 377.9 1847.2 318.5 1962.6 259.2 1847.4 319 1732.1 378.6 1501.8 497.8 1271.4 616.5 1156 675.9 1040.6 735.2"/>
    <line class="st0" x1="-1376" y1="2197.6" x2="-72.3" y2="1381.4"/>
    <polygon class="st10" points="-1376 2197.6 -1050.2 1993.2 -724.5 1789 -398.3 1585.1 -72.3 1381.4 -398 1585.8 -723.8 1790 -1050 1993.9 -1376 2197.6"/>
    <line class="st0" x1="1231.6" y1="565.1" x2="2535.3" y2="-251.3"/>
    <polygon class="st10" points="1231.6 565.1 1557.4 360.7 1883.1 156.3 2209.3 -47.6 2535.3 -251.3 2209.6 -46.9 1883.8 157.2 1557.6 361.1 1231.6 565.1"/>
    <line class="st0" x1="-658.2" y1="1865.6" x2="167" y2="1270.6"/>
    <polygon class="st10" points="-658.2 1865.6 -555.3 1791 -452.1 1716.5 -246.1 1567.6 -39.5 1419 63.7 1344.8 167 1270.6 63.9 1345.3 -39 1419.7 -245.3 1568.6 -451.6 1717.2 -555 1791.4 -658.2 1865.6"/>
    <line class="st0" x1="992.3" y1="675.6" x2="1817.5" y2="80.6"/>
    <polygon class="st10" points="992.3 675.6 1095.4 601.2 1198.4 526.8 1404.7 377.7 1611 229.3 1714.4 154.8 1817.5 80.6 1714.6 155.3 1611.5 229.7 1405.4 378.6 1198.8 527.2 1095.7 601.4 992.3 675.6"/>
    <line class="st0" x1="-1664.9" y1="2881.4" x2="-168.5" y2="1609.3"/>
    <polygon class="st10" points="-1664.9 2881.4 -1291 2563.1 -916.9 2245 -542.8 1926.9 -168.5 1609.3 -542.4 1927.6 -916.2 2245.7 -1290.5 2563.5 -1664.9 2881.4"/>
    <line class="st0" x1="1327.8" y1="337.2" x2="2824.2" y2="-935.1"/>
    <polygon class="st10" points="1327.8 337.2 1701.7 18.9 2075.5 -299.4 2449.9 -617.3 2824.2 -935.1 2450.3 -616.8 2076.2 -298.5 1702.2 19.4 1327.8 337.2"/>
    <line class="st0" x1="-902.6" y1="2211.2" x2="85.7" y2="1386"/>
    <polygon class="st10" points="-902.6 2211.2 -779.3 2107.8 -655.8 2004.7 -408.8 1798.1 -161.6 1592.1 -38.1 1488.9 85.7 1386 -37.8 1489.4 -161.1 1592.5 -408.1 1799.1 -655.3 2005.2 -778.8 2108.3 -902.6 2211.2"/>
    <line class="st0" x1="1073.7" y1="560.5" x2="2061.9" y2="-265"/>
    <polygon class="st10" points="1073.7 560.5 1197.2 457.1 1320.4 353.7 1567.4 147.4 1814.6 -58.9 1938.1 -162 2061.9 -265 1938.6 -161.6 1815.1 -58.4 1568.1 148.1 1320.9 354.4 1197.4 457.6 1073.7 560.5"/>
    <line class="st0" x1="-1227.8" y1="2485" x2="-22.8" y2="1477.2"/>
    <polygon class="st10" points="-1227.8 2485 -926.7 2232.8 -625.6 1980.7 -324.3 1729 -22.8 1477.2 -323.8 1729.4 -624.9 1981.5 -926.3 2233.5 -1227.8 2485"/>
    <line class="st0" x1="1182.1" y1="469.3" x2="2387.1" y2="-538.8"/>
    <polygon class="st10" points="1182.1 469.3 1483.2 216.8 1784.3 -35.2 2085.6 -287 2387.1 -538.8 2086.1 -286.5 1785 -34.2 1483.6 217.5 1182.1 469.3"/>
    <line class="st0" x1="-557" y1="2112.4" x2="200.8" y2="1353"/>
    <polygon class="st10" points="-557 2112.4 -462.4 2017.1 -367.6 1922.1 -178.6 1732.1 11 1542.5 105.8 1447.5 200.8 1353 106.3 1448 11.7 1543 -177.6 1733 -367.2 1922.6 -461.9 2017.6 -557 2112.4"/>
    <line class="st0" x1="958.5" y1="593.5" x2="1716.3" y2="-165.9"/>
    <polygon class="st10" points="958.5 593.5 1053.1 498.3 1147.6 403.3 1336.9 213.5 1526.5 23.7 1621.3 -71.1 1716.3 -165.9 1621.7 -70.9 1527 24.2 1337.9 214.2 1148.3 404 1053.3 498.8 958.5 593.5"/>
    <line class="st0" x1="-1056.9" y1="2895" x2="34.2" y2="1613.8"/>
    <polygon class="st10" points="-1056.9 2895 -784.3 2574.3 -511.7 2254.1 -238.9 1933.8 34.2 1613.8 -238.4 1934.3 -511 2254.8 -783.8 2574.8 -1056.9 2895"/>
    <line class="st0" x1="1125.1" y1="332.7" x2="2216.3" y2="-948.5"/>
    <polygon class="st10" points="1125.1 332.7 1397.7 12 1670.3 -308.3 1943.2 -628.5 2216.3 -948.5 1943.7 -628 1671 -307.6 1398.2 12.4 1125.1 332.7"/>
    <line class="st0" x1="-723.1" y1="2337.4" x2="145.5" y2="1427.9"/>
    <polygon class="st10" points="-723.1 2337.4 -614.9 2223.4 -506.2 2109.8 -289.4 1882.1 -72.1 1655 36.6 1541.3 145.5 1427.9 37.1 1541.8 -71.6 1655.5 -288.4 1883.1 -505.7 2110.2 -614.4 2223.9 -723.1 2337.4"/>
    <line class="st0" x1="1013.8" y1="518.4" x2="1882.4" y2="-391.1"/>
    <polygon class="st10" points="1013.8 518.4 1122.2 404.7 1230.9 290.8 1447.7 63.4 1665.1 -164 1773.7 -277.4 1882.4 -391.1 1774.2 -277.2 1665.5 -163.5 1448.7 64.1 1231.4 291.3 1122.7 404.9 1013.8 518.4"/>
    <line class="st0" x1="-696.2" y1="2421.8" x2="154.4" y2="1456.1"/>
    <polygon class="st10" points="-696.2 2421.8 -590.2 2301 -484 2180.1 -271.4 1938.6 -58.7 1697.4 47.9 1576.5 154.4 1456.1 48.3 1577 -57.9 1697.8 -270.5 1939.3 -483.5 2180.6 -589.7 2301.2 -696.2 2421.8"/>
    <line class="st0" x1="1005" y1="490.4" x2="1855.6" y2="-475.6"/>
    <polygon class="st10" points="1005 490.4 1111 369.3 1217.3 248.7 1429.8 6.9 1642.8 -234.3 1749.1 -355 1855.6 -475.6 1749.5 -354.5 1643.3 -233.8 1430.8 7.9 1218 249.1 1111.5 369.8 1005 490.4"/>
    <line class="st0" x1="-1098.8" y1="2954.6" x2="20.1" y2="1633.7"/>
    <polygon class="st10" points="-1098.8 2954.6 -819.3 2624.1 -539.7 2293.8 -259.7 1963.8 20.1 1633.7 -259.2 1964.2 -538.8 2294.5 -818.8 2624.6 -1098.8 2954.6"/>
    <line class="st0" x1="1139.2" y1="312.8" x2="2258.1" y2="-1008.3"/>
    <polygon class="st10" points="1139.2 312.8 1418.5 -17.7 1698.1 -348.3 1978.1 -678.3 2258.1 -1008.3 1978.6 -677.8 1699 -347.3 1419 -17.2 1139.2 312.8"/>
    <line class="st0" x1="-429.9" y1="2528.8" x2="243.2" y2="1491.8"/>
    <polygon class="st10" points="-429.9 2528.8 -346.1 2399.1 -261.8 2269.4 -93.8 2009.9 74.7 1750.7 158.7 1621.3 243.2 1491.8 159.1 1621.5 75.1 1751.2 -92.9 2010.7 -261.4 2269.6 -345.6 2399.4 -429.9 2528.8"/>
    <line class="st0" x1="916.2" y1="454.7" x2="1589.2" y2="-582.3"/>
    <polygon class="st10" points="916.2 454.7 1000.2 324.8 1084.2 195.3 1252.2 -64.2 1420.7 -323.4 1504.9 -452.8 1589.2 -582.3 1505.4 -452.6 1421.2 -322.9 1253.2 -63.7 1084.7 195.5 1000.7 325.2 916.2 454.7"/>
    <line class="st0" x1="-263.8" y1="2403.4" x2="298.4" y2="1449.9"/>
    <polygon class="st10" points="-263.8 2403.4 -193.9 2284.2 -123.5 2165 16.7 1926.4 157.5 1688.3 227.8 1569.1 298.4 1449.9 228.3 1569.3 158.2 1688.5 17.7 1927.1 -123 2165.3 -193.4 2284.5 -263.8 2403.4"/>
    <line class="st0" x1="860.9" y1="496.4" x2="1423.1" y2="-457.2"/>
    <polygon class="st10" points="860.9 496.4 931 377.2 1001.1 257.8 1141.6 19.4 1282.4 -219 1352.7 -338.2 1423.1 -457.2 1353.2 -337.7 1282.8 -218.5 1142.6 19.8 1001.9 258.2 931.3 377.4 860.9 496.4"/>
  </g>
  <g id="_三角" class="st16">
    <polygon class="st11" points="1282.8 -55.3 931.7 494.7 1344.8 -24.2 1282.8 -55.3"/>
    <polygon class="st11" points="-140 2011.9 211.1 1462.1 -202.3 1981 -140 2011.9"/>
    <polygon class="st11" points="7.4 -118.5 319.3 454.2 64.6 -158 7.4 -118.5"/>
    <polygon class="st11" points="1193.3 2113.1 865.4 1549.2 1137.3 2154 1193.3 2113.1"/>
    <polygon class="st11" points="99.3 2319.9 303 1700.2 31.3 2305.3 99.3 2319.9"/>
    <polygon class="st11" points="1697.1 1579.6 1118.7 1278.1 1671.8 1644.2 1697.1 1579.6"/>
    <polygon class="st11" points="-313.5 96.2 164.4 540.2 -271.7 40.7 -313.5 96.2"/>
    <polygon class="st11" points="-383.7 1900.8 70.1 1431.9 -438.2 1858 -383.7 1900.8"/>
    <polygon class="st11" points="1011 -229.5 803.7 388.9 1078.7 -214.5 1011 -229.5"/>
    <polygon class="st11" points="-318.3 -65.1 118.5 419.3 -271.9 -116.8 -318.3 -65.1"/>
    <polygon class="st11" points="1506.1 1903.7 1038.2 1449.4 1463.3 1958.3 1506.1 1903.7"/>
    <polygon class="st11" points="-569.2 382.9 23.2 656.5 -546.9 317.1 -569.2 382.9"/>
    <polygon class="st11" points="1746.2 892.2 1095 932 1757.7 960.7 1746.2 892.2"/>
    <polygon class="st11" points="-565.6 1294.6 49.8 1077.7 -595.2 1231.9 -565.6 1294.6"/>
  </g>
  <g id="_爆発">
    <path class="st9" d="M1633.9,1362.1c-413.6-150.8-620.1-78.7-359.2,125.2-260.9-203.9-281,13.9-34.9,378.9-246-365.2-455.5-428.4-364.3-110.1-90.9-318.3-235.3-153.7-250.8,286.2,15.6-440.1-116.6-614.4-230-303.5,113.4-310.9-100-262.6-371.2,84.2,271.4-346.8,266.9-565.6-7.7-380.5,274.5-185,73.5-271.4-349.7-150.3,423.4-121.1,548.1-300.8,217.1-312.6,331,11.7,219.2-176.4-194.3-327.2,413.6,150.8,620.1,78.7,359.2-125.2,260.9,203.9,281-13.9,34.9-378.9,246,365.2,455.5,428.4,364.3,110.1,90.9,318.3,235.3,153.7,250.8-286.2-15.6,440.1,116.6,614.4,230,303.5-113.4,310.9,100,262.6,371.2-84.2-271.4,346.8-266.9,565.6,7.7,380.5-274.5,185-73.5,271.4,349.7,150.3-423.4,121.1-548.1,300.8-217.1,312.6-331-11.7-219.2,176.4,194.3,327.2h0Z"/>
    <path class="st10" d="M1583.9,1330c-413.6-150.8-620.1-78.7-359.2,125.2-260.9-203.9-281,13.9-34.9,378.9-246-365.2-455.5-428.4-364.3-110.1-90.9-318.3-235.3-153.7-250.8,286.2,15.6-440.1-116.6-614.4-230-303.5,113.4-310.9-100-262.6-371.2,84.2,271.4-346.8,266.9-565.6-7.7-380.5,274.5-185,73.5-271.4-349.7-150.3,423.4-121.1,548.1-300.8,217.1-312.6,331,11.7,219.2-176.4-194.3-327.2C52.4,771.1,259,699.1-1.9,495.2c260.9,203.9,281-13.9,34.9-378.9,246,365.2,455.5,428.4,364.3,110.1,90.9,318.3,235.3,153.7,250.8-286.2-15.6,440.1,116.6,614.4,230,303.5-113.4,310.9,100,262.6,371.2-84.2-271.4,346.8-266.9,565.6,7.7,380.5-274.5,185-73.5,271.4,349.7,150.3-423.4,121.1-548.1,300.8-217.1,312.6-331-11.7-219.2,176.4,194.3,327.2h0Z"/>
    <path class="st9" d="M154.6,543c-45-63.4-76.6-71.8-55-14.8-21.5-57-48.3-38.1-46.4,32.8-1.9-71.1-19.4-99.1-30.4-48.8,11-50.3-22-49.1-57.4,1.7,35.4-51,33.3-84-4.1-57.4,37.3-26.6,6.7-39.5-52.9-22.7,59.8-16.8,71.6-47.6,20.6-53.6,51,6,30.2-19.6-36.1-44.8,66.5,25.1,93.1,6,46.2-33.3,46.7,39.3,49.1,6.5,4.1-56.7,45,63.4,76.6,71.8,55,14.8,21.5,57,48.3,38.1,46.4-32.8,1.9,71.1,19.4,99.1,30.4,48.8-11,50.3,22,49.1,57.4-1.7-35.4,51-33.3,84,4.1,57.4-37.3,26.6-6.7,39.5,52.9,22.7-59.8,16.8-71.6,47.6-20.6,53.6-51-6-30.2,19.6,36.1,44.8-66.5-25.1-93.1-6-46.2,33.3-46.7-39.3-49.1-6.5-4.1,56.7Z"/>
    <path class="st10" d="M129,524.1c-45-63.4-76.6-71.8-55-14.8-21.5-57-48.3-38.1-46.4,32.8-1.9-71.1-19.4-99.1-30.4-48.8,11-50.3-22-49.1-57.4,1.7,35.4-51,33.3-84-4.1-57.4,37.3-26.6,6.7-39.5-52.9-22.7,59.8-16.8,71.6-47.6,20.6-53.6,51,6,30.2-19.6-36.1-44.8,66.5,25.1,93.1,6,46.2-33.3,46.7,39.3,49.1,6.5,4.1-56.7,45,63.4,76.6,71.8,55,14.8,21.5,57,48.3,38.1,46.4-32.8,1.9,71.1,19.4,99.1,30.4,48.8-11,50.3,22,49.1,57.4-1.7-35.4,51-33.3,84,4.1,57.4-37.3,26.6-6.7,39.5,52.9,22.7-59.8,16.8-71.6,47.6-20.6,53.6-51-6-30.2,19.6,36.1,44.8-66.5-25.1-93.1-6-46.2,33.3-46.7-39.3-49.1-6.5-4.1,56.7Z"/>
    <path class="st4" d="M129,524.1c-45-63.4-76.6-71.8-55-14.8-21.5-57-48.3-38.1-46.4,32.8-1.9-71.1-19.4-99.1-30.4-48.8,11-50.3-22-49.1-57.4,1.7,35.4-51,33.3-84-4.1-57.4,37.3-26.6,6.7-39.5-52.9-22.7,59.8-16.8,71.6-47.6,20.6-53.6,51,6,30.2-19.6-36.1-44.8,66.5,25.1,93.1,6,46.2-33.3,46.7,39.3,49.1,6.5,4.1-56.7,45,63.4,76.6,71.8,55,14.8,21.5,57,48.3,38.1,46.4-32.8,1.9,71.1,19.4,99.1,30.4,48.8-11,50.3,22,49.1,57.4-1.7-35.4,51-33.3,84,4.1,57.4-37.3,26.6-6.7,39.5,52.9,22.7-59.8,16.8-71.6,47.6-20.6,53.6-51-6-30.2,19.6,36.1,44.8-66.5-25.1-93.1-6-46.2,33.3-46.7-39.3-49.1-6.5-4.1,56.7Z"/>
    <path class="st9" d="M1094.7,246c-68.7-27.5-106.7-13.6-66.3,23.9-40.4-37.6-41.2,2.9-1.2,70.6-40-67.7-79.7-74.4-69.2-12-10.8-62.5-34.2-29.7-40.9,57.2,6.7-86.9-18.4-118-43.8-54.3,25.4-63.7-14.4-58.4-69.2,9.1,54.8-67.5,60.3-107.7,9.6-69.6,50.7-38.1,17.2-60.3-58.4-38.8,75.6-21.5,103.2-51.2,47.9-51.9,55.3.7,37.1-35.7-31.6-62.9,68.7,27.5,106.7,13.6,66.3-23.9,40.4,37.6,41.2-2.9,1.2-70.6,40,67.7,79.7,74.4,69.2,12,10.8,62.5,34.2,29.7,40.9-57.2-6.7,86.9,18.4,118,43.8,54.3-25.4,63.7,14.4,58.4,69.2-9.1-54.8,67.5-60.3,107.7-9.6,69.6-50.7,38.1-17.2,60.3,58.4,38.8-75.6,21.5-103.2,51.2-47.9,51.9-55.3-.7-37.1,35.7,31.6,62.9h0Z"/>
    <path class="st18" d="M1069.4,229.7c-68.7-27.5-106.7-13.6-66.3,23.9-40.4-37.6-41.2,2.9-1.2,70.6-40-67.7-79.7-74.4-69.2-12-10.8-62.5-34.2-29.7-40.9,57.2,6.7-86.9-18.4-118-43.8-54.3,25.4-63.7-14.4-58.4-69.2,9.1,54.8-67.5,60.3-107.7,9.6-69.6,50.7-38.1,17.2-60.3-58.4-38.8,75.6-21.5,103.2-51.2,47.9-51.9,55.3.7,37.1-35.7-31.6-62.9,68.7,27.5,106.7,13.6,66.3-23.9,40.4,37.6,41.2-2.9,1.2-70.6,40,67.7,79.7,74.4,69.2,12,10.8,62.5,34.2,29.7,40.9-57.2-6.7,86.9,18.4,118,43.8,54.3-25.4,63.7,14.4,58.4,69.2-9.1-54.8,67.5-60.3,107.7-9.6,69.6-50.7,38.1-17.2,60.3,58.4,38.8-75.6,21.5-103.2,51.2-47.9,51.9-55.3-.7-37.1,35.7,31.6,62.9h0Z"/>
    <path class="st14" d="M1069.4,229.7c-68.7-27.5-106.7-13.6-66.3,23.9-40.4-37.6-41.2,2.9-1.2,70.6-40-67.7-79.7-74.4-69.2-12-10.8-62.5-34.2-29.7-40.9,57.2,6.7-86.9-18.4-118-43.8-54.3,25.4-63.7-14.4-58.4-69.2,9.1,54.8-67.5,60.3-107.7,9.6-69.6,50.7-38.1,17.2-60.3-58.4-38.8,75.6-21.5,103.2-51.2,47.9-51.9,55.3.7,37.1-35.7-31.6-62.9,68.7,27.5,106.7,13.6,66.3-23.9,40.4,37.6,41.2-2.9,1.2-70.6,40,67.7,79.7,74.4,69.2,12,10.8,62.5,34.2,29.7,40.9-57.2-6.7,86.9,18.4,118,43.8,54.3-25.4,63.7,14.4,58.4,69.2-9.1-54.8,67.5-60.3,107.7-9.6,69.6-50.7,38.1-17.2,60.3,58.4,38.8-75.6,21.5-103.2,51.2-47.9,51.9-55.3-.7-37.1,35.7,31.6,62.9h0Z"/>
    <path class="st9" d="M331.9,1818.2c-45.5-31.8-79.7-33.5-59.8-3.4-19.9-30.4-22.5,4.1-4.5,59.8-18-55.8-46.7-74.4-50-32.3,3.4-41.9-18.4-15.3-37.6,46.2,19.4-61.7,10.1-94.3-16.3-57,26.1-37.3-7.7-34.9-59.1,4.3,51.2-39.3,68.9-68.7,30.6-51.2,38.3-17.5,11-38.1-47.6-35.9,58.6-2.2,90-16.5,54.6-24.7,35.4,8.4,21.8-23.5-23.5-55,45.5,31.8,79.7,33.5,59.8,3.4,19.9,30.4,22.5-4.1,4.5-59.8,18,55.8,46.7,74.4,50,32.3-3.4,41.9,18.4,15.3,37.6-46.2-19.4,61.7-10.1,94.3,16.3,57-26.1,37.3,7.7,34.9,59.1-4.3-51.2,39.3-68.9,68.7-30.6,51.2-38.3,17.5-11,38.1,47.6,35.9-58.6,2.2-90,16.5-54.6,24.7-35.4-8.4-21.8,23.5,23.5,55Z"/>
    <path class="st18" d="M306.6,1802c-45.5-31.8-79.7-33.5-59.8-3.4-19.9-30.4-22.5,4.1-4.5,59.8-18-55.8-46.7-74.4-50-32.3,3.4-41.9-18.4-15.3-37.6,46.2,19.4-61.7,10.1-94.3-16.3-57,26.1-37.3-7.7-34.9-59.1,4.3,51.2-39.3,68.9-68.7,30.6-51.2,38.3-17.5,11-38.1-47.6-35.9,58.6-2.2,90-16.5,54.6-24.7,35.4,8.4,21.8-23.5-23.5-55,45.5,31.8,79.7,33.5,59.8,3.4,19.9,30.4,22.5-4.1,4.5-59.8,18,55.8,46.7,74.4,50,32.3-3.4,41.9,18.4,15.3,37.6-46.2-19.4,61.7-10.1,94.3,16.3,57-26.1,37.3,7.7,34.9,59.1-4.3-51.2,39.3-68.9,68.7-30.6,51.2-38.3,17.5-11,38.1,47.6,35.9-58.6,2.2-90,16.5-54.6,24.7-35.4-8.4-21.8,23.5,23.5,55Z"/>
    <path class="st8" d="M306.6,1802c-45.5-31.8-79.7-33.5-59.8-3.4-19.9-30.4-22.5,4.1-4.5,59.8-18-55.8-46.7-74.4-50-32.3,3.4-41.9-18.4-15.3-37.6,46.2,19.4-61.7,10.1-94.3-16.3-57,26.1-37.3-7.7-34.9-59.1,4.3,51.2-39.3,68.9-68.7,30.6-51.2,38.3-17.5,11-38.1-47.6-35.9,58.6-2.2,90-16.5,54.6-24.7,35.4,8.4,21.8-23.5-23.5-55,45.5,31.8,79.7,33.5,59.8,3.4,19.9,30.4,22.5-4.1,4.5-59.8,18,55.8,46.7,74.4,50,32.3-3.4,41.9,18.4,15.3,37.6-46.2-19.4,61.7-10.1,94.3,16.3,57-26.1,37.3,7.7,34.9,59.1-4.3-51.2,39.3-68.9,68.7-30.6,51.2-38.3,17.5-11,38.1,47.6,35.9-58.6,2.2-90,16.5-54.6,24.7-35.4-8.4-21.8,23.5,23.5,55Z"/>
    <path class="st9" d="M1095.2,1586.1c35.4-15.6,57.2-36.6,37.8-36.4,19.4,0-8.1-12.4-48.1-21.3,39.7,8.9,68.9,1.7,50.7-12.7,18.2,14.4,2.6-11.5-27-44.5,29.7,33.3,56.2,46.9,46,23.7,10.3,23.2,18-5.5,13.6-50,4.3,44.5,12.7,73.2,14.6,50-1.9,23,23.2,6.5,43.6-29-20.3,35.4-29.9,63.9-16.8,49.8-13.2,14.1,17,12.2,52.4-3.4-35.4,15.6-57.2,36.6-37.8,36.4-19.4,0,8.1,12.4,48.1,21.3-39.7-8.9-68.9-1.7-50.7,12.7-18.2-14.4-2.6,11.5,27,44.5-29.7-33.3-56.2-46.9-46-23.7-10.3-23.2-18,5.5-13.6,50-4.3-44.5-12.7-73.2-14.6-50,1.9-23-23.2-6.5-43.6,29,20.3-35.4,29.9-63.9,16.8-49.8,13.2-14.1-17-12.2-52.4,3.4Z"/>
    <path class="st20" d="M1070.1,1569.8c35.4-15.6,57.2-36.6,37.8-36.4,19.4,0-8.1-12.4-48.1-21.3,39.7,8.9,68.9,1.7,50.7-12.7,18.2,14.4,2.6-11.5-27-44.5,29.7,33.3,56.2,46.9,46,23.7,10.3,23.2,18-5.5,13.6-50,4.3,44.5,12.7,73.2,14.6,50-1.9,23,23.2,6.5,43.6-29-20.3,35.4-29.9,63.9-16.8,49.8-13.2,14.1,17,12.2,52.4-3.4-35.4,15.6-57.2,36.6-37.8,36.4-19.4,0,8.1,12.4,48.1,21.3-39.7-8.9-68.9-1.7-50.7,12.7-18.2-14.4-2.6,11.5,27,44.5-29.7-33.3-56.2-46.9-46-23.7-10.3-23.2-18,5.5-13.6,50-4.3-44.5-12.7-73.2-14.6-50,1.9-23-23.2-6.5-43.6,29,20.3-35.4,29.9-63.9,16.8-49.8,13.2-14.1-17-12.2-52.4,3.4Z"/>
    <path class="st9" d="M51,132.6c32.8-14.4,55-34,38.5-34,16.3,0-11.2-10.8-47.9-18.9,36.6,8.1,65.6,2.2,50.3-10.3,15.3,12.4-1-12-28.5-42.6,27.5,30.4,52.9,45,44,25.1,8.6,19.9,15.3-8.6,11.2-49.5,3.8,40.9,11,69.4,12.2,49.8-1.2,19.6,22.5,2.4,41.4-30.2-18.9,32.6-29.4,60.1-18.4,48.1-11,12.2,18.4,8.9,51.2-5.5-32.8,14.4-55,34-38.5,34-16.3,0,11.2,10.8,47.9,18.9-36.6-8.1-65.6-2.2-50.3,10.3-15.3-12.4,1,12,28.5,42.6-27.5-30.4-52.9-45-44-25.1-8.6-19.9-15.3,8.6-11.2,49.5-3.8-40.9-11-69.4-12.2-49.8,1.2-19.6-22.5-2.4-41.4,30.2,18.9-32.6,29.4-60.1,18.4-48.1,11-12.2-18.4-8.9-51.2,5.5Z"/>
    <path class="st6" d="M25.6,116.3c32.8-14.4,55-34,38.5-34,16.3,0-11.2-10.8-47.9-18.9,36.6,8.1,65.6,2.2,50.3-10.3,15.3,12.4-1-12-28.5-42.6,27.5,30.4,52.9,45,44,25.1,8.6,19.9,15.3-8.6,11.2-49.5,3.8,40.9,11,69.4,12.2,49.8-1.2,19.6,22.5,2.4,41.4-30.2-18.9,32.6-29.4,60.1-18.4,48.1-11,12.2,18.4,8.9,51.2-5.5-32.8,14.4-55,34-38.5,34-16.3,0,11.2,10.8,47.9,18.9-36.6-8.1-65.6-2.2-50.3,10.3-15.3-12.4,1,12,28.5,42.6-27.5-30.4-52.9-45-44-25.1-8.6-19.9-15.3,8.6-11.2,49.5-3.8-40.9-11-69.4-12.2-49.8,1.2-19.6-22.5-2.4-41.4,30.2,18.9-32.6,29.4-60.1,18.4-48.1,11-12.2-18.4-8.9-51.2,5.5Z"/>
    <path class="st9" d="M772.6,1837.9c75.2-18.9,97.7-54.1,39.3-61,58.4,6.9,35.2-27.8-40.2-60.6,75.4,32.8,112.2,13.6,64.1-33.3,48.1,46.9,49.1,5.3,1.4-72.5,47.6,77.8,87.6,87.6,69.9,17,17.7,70.6,48.6,42.8,53.4-48.1-5,90.9,15.6,127.3,35.7,62.9-20.1,64.1,21.5,63.7,72.3-1-50.7,64.6-54.6,106.3-6.7,72.3-48.1,34-11.5,54.1,63.4,35.2-75.2,18.9-97.7,54.1-39.3,61-58.4-6.9-35.2,27.8,40.2,60.6-75.4-32.8-112.2-13.6-64.1,33.3-48.1-46.9-49.1-5.3-1.4,72.5-47.6-77.8-87.6-87.6-69.9-17-17.7-70.6-48.6-42.8-53.4,48.1,5-90.9-15.6-127.3-35.7-62.9,20.1-64.1-21.5-63.7-72.3,1,50.7-64.6,54.6-106.3,6.7-72.3,48.1-34,11.5-54.1-63.4-35.2Z"/>
    <path class="st17" d="M747.2,1821.8c75.2-18.9,97.7-54.1,39.3-61,58.4,6.9,35.2-27.8-40.2-60.6,75.4,32.8,112.2,13.6,64.1-33.3,48.1,46.9,49.1,5.3,1.4-72.5,47.6,77.8,87.6,87.6,69.9,17,17.7,70.6,48.6,42.8,53.4-48.1-5,90.9,15.6,127.3,35.7,62.9-20.1,64.1,21.5,63.7,72.3-1-50.7,64.6-54.6,106.3-6.7,72.3-48.1,34-11.5,54.1,63.4,35.2-75.2,18.9-97.7,54.1-39.3,61-58.4-6.9-35.2,27.8,40.2,60.6-75.4-32.8-112.2-13.6-64.1,33.3-48.1-46.9-49.1-5.3-1.4,72.5-47.6-77.8-87.6-87.6-69.9-17-17.7-70.6-48.6-42.8-53.4,48.1,5-90.9-15.6-127.3-35.7-62.9,20.1-64.1-21.5-63.7-72.3,1,50.7-64.6,54.6-106.3,6.7-72.3,48.1-34,11.5-54.1-63.4-35.2h0Z"/>
    <path class="st7" d="M747.2,1821.8c75.2-18.9,97.7-54.1,39.3-61,58.4,6.9,35.2-27.8-40.2-60.6,75.4,32.8,112.2,13.6,64.1-33.3,48.1,46.9,49.1,5.3,1.4-72.5,47.6,77.8,87.6,87.6,69.9,17,17.7,70.6,48.6,42.8,53.4-48.1-5,90.9,15.6,127.3,35.7,62.9-20.1,64.1,21.5,63.7,72.3-1-50.7,64.6-54.6,106.3-6.7,72.3-48.1,34-11.5,54.1,63.4,35.2-75.2,18.9-97.7,54.1-39.3,61-58.4-6.9-35.2,27.8,40.2,60.6-75.4-32.8-112.2-13.6-64.1,33.3-48.1-46.9-49.1-5.3-1.4,72.5-47.6-77.8-87.6-87.6-69.9-17-17.7-70.6-48.6-42.8-53.4,48.1,5-90.9-15.6-127.3-35.7-62.9,20.1-64.1-21.5-63.7-72.3,1,50.7-64.6,54.6-106.3,6.7-72.3,48.1-34,11.5-54.1-63.4-35.2h0Z"/>
  </g>
  <g id="_星">
    <polygon class="st9" points="272.8 210.8 298.7 238.8 331.5 232.9 318.5 266.6 336.7 300.8 303 293.7 281.4 320.9 273.6 282.9 242 265.4 270.9 248.9 272.8 210.8"/>
    <polygon class="st2" points="248.7 198.4 274.5 226.2 307.3 220.2 294.1 253.9 312.6 288.1 278.8 281.2 257.3 308.3 249.4 270.2 217.8 252.7 246.7 236.2 248.7 198.4"/>
    <polygon class="st9" points="373.6 21.8 416.9 72 474.8 63.9 449.7 121.8 479.6 182.8 420.7 168.5 381.3 214.4 370.2 147.4 315.9 114.9 367.8 87.8 373.6 21.8"/>
    <polygon class="st17" points="349.4 9.1 392.7 59.6 450.7 51.2 425.5 109.4 455.4 170.4 396.6 155.8 357.1 202 346.1 135 291.7 102.2 343.7 75.4 349.4 9.1"/>
    <polygon class="st9" points="1229.7 85.9 1222.3 121.1 1243.3 141 1212 151.7 1196 185.2 1184 157 1153.1 157.7 1177.1 129.2 1173.7 96.2 1200.7 107.2 1229.7 85.9"/>
    <polygon class="st1" points="1205.5 73.5 1198.1 108.4 1219.2 128.5 1187.6 139.3 1171.8 172.8 1159.8 144.3 1128.7 145 1152.9 116.8 1149.5 83.8 1176.6 94.8 1205.5 73.5"/>
    <polygon class="st9" points="450.4 1807.2 450.9 1861.8 483.9 1880.7 446.4 1911.6 435.6 1968.3 411.6 1932.6 371.9 1948.7 394.9 1895.8 381 1849.1 419.1 1852 450.4 1807.2"/>
    <polygon class="st13" points="426 1794.5 426.7 1849.4 459.8 1868.3 422.2 1899.1 411.2 1955.6 387.5 1920 347.7 1936.2 370.7 1883.3 356.8 1836.4 394.9 1839.5 426 1794.5"/>
    <polygon class="st9" points="507.9 1655 511.9 1676.1 529.4 1683 512.9 1695.2 511.5 1717 497.3 1703.6 478.9 1710.1 486.6 1689.7 476.7 1671.8 495.7 1672.7 507.9 1655"/>
    <polygon class="st17" points="483.7 1642.6 487.5 1663.6 505 1670.6 488.7 1682.8 487.3 1704.6 473.2 1691.1 454.7 1697.6 462.4 1677 452.6 1659.3 471.5 1660 483.7 1642.6"/>
    <polygon class="st9" points="101.9 1402.3 95.2 1428.4 111.5 1445.6 86.4 1450.9 73 1474.8 64.1 1451.8 39.7 1449.4 59.3 1430.3 57.7 1404.7 78.7 1415.7 101.9 1402.3"/>
    <polygon class="st20" points="77.8 1389.8 71.1 1415.7 87.1 1433.1 62 1438.2 48.6 1462.3 40 1439.4 15.5 1437 35.2 1417.6 33.5 1392 54.3 1403 77.8 1389.8"/>
    <polygon class="st9" points="7.2 1565.7 -5 1612.4 24.2 1643.5 -21.1 1652.9 -45.2 1695.9 -61 1654.8 -104.8 1650.5 -69.4 1615.8 -72.5 1569.8 -35 1589.7 7.2 1565.7"/>
    <polygon class="st6" points="-17 1553.1 -29.2 1600 -.3 1631.1 -45.5 1640.2 -69.4 1683.5 -85.2 1642.3 -129 1637.8 -93.6 1603.3 -96.7 1557.4 -59.1 1577.2 -17 1553.1"/>
  </g>
  <g id="_かみなり">
    <polygon class="st9" points="932.9 612.9 953.3 449.7 1017.2 446.1 1044.2 305.6 1128.2 319.7 1070.3 498.8 990.1 490.4 932.9 612.9"/>
    <polygon class="st15" points="915.7 604.1 936 440.8 999.9 437.3 1027 296.8 1111 310.9 1053.1 489.9 972.9 481.5 915.7 604.1"/>
    <polygon class="st9" points="935.8 664.9 1044.5 541.4 1099.5 574.4 1201 473.6 1262.3 532.8 1113.6 647.9 1052.1 595.9 935.8 664.9"/>
    <polygon class="st15" points="918.6 655.8 1027.2 532.3 1082 565.5 1183.8 464.8 1245 523.7 1096.2 638.8 1034.9 586.8 918.6 655.8"/>
  </g>
</svg>