<?xml version="1.0" encoding="UTF-8"?><svg id="_レイヤー_2" xmlns="http://www.w3.org/2000/svg" viewBox="0 0 395.92 301.35"><defs><style>.cls-1{fill:#dab471;}.cls-2{fill:#c69c6d;}.cls-3{fill:#b58e4e;}</style></defs><g id="_レイヤー_1-2"><g id="gold"><path class="cls-1" d="M96.68,260.82s-14.77-5.75-18.05-19.83c-3.28-14.08,3.3-29.11,3.3-29.11,0,0,10.78,13.3,13.47,22.4,2.69,9.11,1.28,26.54,1.28,26.54Z"/><path class="cls-2" d="M98.34,268.08s-15.32-12.45-30.59-15.57c-15.27-3.12-26.25.8-26.25.8,0,0,11.52,14.42,27.86,17.34,10.35,1.85,28.98-2.58,28.98-2.58Z"/><path class="cls-2" d="M68.81,229.51s-8.91-7.99-10.35-20.91c-1.44-12.93,7.07-26.89,7.07-26.89,0,0,6.37,15.38,7.44,25.41,1.07,10.03-4.17,22.39-4.17,22.39Z"/><path class="cls-2" d="M69.75,241.25s-6.59-12.34-22.55-19.51c-15.95-7.17-26.49-4.93-26.49-4.93,0,0,9.36,16.07,19.11,22.08,9.75,6.01,29.94,2.36,29.94,2.36Z"/><path class="cls-2" d="M48.44,195.91s-7.25-12.68-5.69-25.16c1.56-12.49,10.17-17.98,10.17-17.98,0,0,3.82,12.93,3.27,21.01-.55,8.08-7.74,22.13-7.74,22.13Z"/><path class="cls-1" d="M47.13,204.84s-7.04-15.72-23.47-23.72c-12.3-5.99-19.49-6.59-19.49-6.59,0,0,6.81,19.93,16.69,27.04,9.88,7.1,26.26,3.27,26.26,3.27Z"/><path class="cls-1" d="M34.01,160.43s-2.74-14.19,2.53-25.49c5.27-11.3,14.85-13.84,14.85-13.84,0,0-.48,13.37-3.47,20.82-3,7.45-13.91,18.5-13.91,18.5Z"/><path class="cls-2" d="M30.42,168.44s-1.97-16.4-14.43-29.08c-9.24-9.4-15.99-12.04-15.99-12.04,0,0,.21,20.49,7.16,30.07s23.26,11.04,23.26,11.04Z"/><path class="cls-2" d="M32.55,123.35s.07-13.39,6.86-22.62c6.79-9.23,15.9-9.7,15.9-9.7,0,0-2.83,12.03-6.88,18.21s-15.88,14.11-15.88,14.11Z"/><path class="cls-2" d="M26.89,127.86s1.39-14.48-6.96-27.34c-6.93-10.68-11.2-13.04-11.2-13.04,0,0-3.38,17.55.74,26.94,4.12,9.39,17.42,13.45,17.42,13.45Z"/><path class="cls-2" d="M37.32,88.78s3.18-12.06,11.44-18.73c8.26-6.66,16.55-4.85,16.55-4.85,0,0-5.35,10.16-10.43,14.74-5.08,4.59-17.57,8.83-17.57,8.83Z"/><path class="cls-1" d="M29.76,92.84s7.55-11.68,5.21-25.86c-1.93-11.68-4.1-15.61-4.1-15.61,0,0-9.9,13.34-10.24,22.94-.34,9.6,9.12,18.52,9.12,18.52Z"/><path class="cls-1" d="M49.2,58.52s5.43-8.88,13.63-12.16c8.2-3.27,14.4.28,14.4.28,0,0-6.71,6.81-11.87,9.21-5.16,2.4-16.16,2.66-16.16,2.66Z"/><path class="cls-2" d="M42.33,61.9s8.46-8.17,8.81-20.27c.29-9.76-.58-13.59-.58-13.59,0,0-10.42,9.1-12.39,16.93-1.97,7.82,4.16,16.93,4.16,16.93Z"/><path class="cls-2" d="M64.77,37.54s4.83-5.13,10.73-6.11c5.9-.98,9.54,2.3,9.54,2.3,0,0-5.39,3.56-9.15,4.4-3.76.85-11.12-.6-11.12-.6Z"/><path class="cls-2" d="M59.31,37.61s6.72-4.13,8.83-12.11c1.5-5.66,1.63-9.14,1.63-9.14,0,0-8.24,4.42-10.71,9.32-2.46,4.9.24,11.93.24,11.93Z"/><path class="cls-2" d="M74.15,24.6s-1.28-6.82,4.05-11.95c5.33-5.14,13.47-4.43,13.47-4.43,0,0-2.24,6.68-6.38,10.45-4.14,3.77-11.15,5.93-11.15,5.93Z"/><path class="cls-2" d="M299.23,260.82s14.77-5.75,18.05-19.83-3.3-29.11-3.3-29.11c0,0-10.78,13.3-13.47,22.4-2.69,9.11-1.28,26.54-1.28,26.54Z"/><path class="cls-2" d="M297.58,268.08s15.32-12.45,30.59-15.57c15.27-3.12,26.25.8,26.25.8,0,0-11.52,14.42-27.86,17.34-10.35,1.85-28.98-2.58-28.98-2.58Z"/><path class="cls-1" d="M327.11,229.51s8.91-7.99,10.35-20.91c1.44-12.93-7.07-26.89-7.07-26.89,0,0-6.37,15.38-7.44,25.41-1.07,10.03,4.17,22.39,4.17,22.39Z"/><path class="cls-2" d="M326.17,241.25s6.59-12.34,22.55-19.51c15.95-7.17,26.49-4.93,26.49-4.93,0,0-9.36,16.07-19.11,22.08-9.75,6.01-29.94,2.36-29.94,2.36Z"/><path class="cls-2" d="M347.48,195.91s7.25-12.68,5.69-25.16c-1.56-12.49-10.17-17.98-10.17-17.98,0,0-3.82,12.93-3.27,21.01.55,8.08,7.74,22.13,7.74,22.13Z"/><path class="cls-2" d="M348.79,204.84s7.04-15.72,23.47-23.72c12.3-5.99,19.49-6.59,19.49-6.59,0,0-6.81,19.93-16.69,27.04-9.88,7.1-26.26,3.27-26.26,3.27Z"/><path class="cls-2" d="M361.91,160.43s2.74-14.19-2.53-25.49c-5.27-11.3-14.85-13.84-14.85-13.84,0,0,.48,13.37,3.47,20.82,3,7.45,13.91,18.5,13.91,18.5Z"/><path class="cls-1" d="M365.5,168.44s1.97-16.4,14.43-29.08c9.24-9.4,15.99-12.04,15.99-12.04,0,0-.21,20.49-7.16,30.07-6.96,9.58-23.26,11.04-23.26,11.04Z"/><path class="cls-2" d="M363.36,123.35s-.07-13.39-6.86-22.62c-6.79-9.23-15.9-9.7-15.9-9.7,0,0,2.83,12.03,6.88,18.21s15.88,14.11,15.88,14.11Z"/><path class="cls-2" d="M369.03,127.86s-1.39-14.48,6.96-27.34c6.93-10.68,11.2-13.04,11.2-13.04,0,0,3.38,17.55-.74,26.94-4.12,9.39-17.42,13.45-17.42,13.45Z"/><path class="cls-1" d="M358.6,88.78s-3.18-12.06-11.44-18.73c-8.26-6.66-16.55-4.85-16.55-4.85,0,0,5.35,10.16,10.43,14.74,5.08,4.59,17.57,8.83,17.57,8.83Z"/><path class="cls-2" d="M366.16,92.84s-7.55-11.68-5.21-25.86c1.93-11.68,4.1-15.61,4.1-15.61,0,0,9.9,13.34,10.24,22.94.34,9.6-9.12,18.52-9.12,18.52Z"/><path class="cls-2" d="M346.72,58.52s-5.43-8.88-13.63-12.16c-8.2-3.27-14.4.28-14.4.28,0,0,6.71,6.81,11.87,9.21,5.16,2.4,16.16,2.66,16.16,2.66Z"/><path class="cls-2" d="M353.59,61.9s-8.46-8.17-8.81-20.27c-.29-9.76.58-13.59.58-13.59,0,0,10.42,9.1,12.39,16.93s-4.16,16.93-4.16,16.93Z"/><path class="cls-2" d="M331.15,37.54s-4.83-5.13-10.73-6.11c-5.9-.98-9.54,2.3-9.54,2.3,0,0,5.39,3.56,9.15,4.4,3.76.85,11.12-.6,11.12-.6Z"/><path class="cls-1" d="M336.61,37.61s-6.72-4.13-8.83-12.11c-1.5-5.66-1.63-9.14-1.63-9.14,0,0,8.24,4.42,10.71,9.32,2.46,4.9-.24,11.93-.24,11.93Z"/><path class="cls-2" d="M321.77,24.6s1.28-6.82-4.05-11.95c-5.33-5.14-13.47-4.43-13.47-4.43,0,0,2.24,6.68,6.38,10.45,4.14,3.77,11.15,5.93,11.15,5.93Z"/><rect class="cls-2" x="113.5" y="198.57" width="168.92" height="4.81"/><path class="cls-3" d="M148.95,46.65c-6.38,2.2-11.8,3.29-16.26,3.29-2.2,0-3.29-1.2-3.29-3.61v-4.25c0-1.63.32-2.85.96-3.67.64-.81,2.23-1.72,4.78-2.71,3.4-1.42,8.04-4.29,13.92-8.61,5.88-4.32,11.62-10.1,17.22-17.32,4.32-5.6,6.87-8.62,7.65-9.09.78-.46,2.13-.69,4.04-.69h8.82v153.77c0,1.56,1.2,2.94,3.61,4.14,2.05.99,3.31,2.04,3.77,3.14.46,1.1.69,3.99.69,8.66,0,1.84-1.24,2.76-3.72,2.76h-48.67c-2.06,0-3.31-.32-3.77-.96-.46-.64-.69-2.2-.69-4.68,0-3.54.19-5.74.58-6.59.39-.85,1.86-1.66,4.41-2.44,3.97-1.2,5.95-2.94,5.95-5.21V46.65Z"/><polygon class="cls-2" points="157.14 219.53 160.79 226.92 168.95 228.11 163.04 233.86 164.44 241.98 157.14 238.15 149.84 241.98 151.24 233.86 145.33 228.11 153.49 226.92 157.14 219.53"/><polygon class="cls-2" points="197.96 219.53 202.43 228.59 212.44 230.05 205.2 237.11 206.91 247.07 197.96 242.37 189.01 247.07 190.72 237.11 183.48 230.05 193.48 228.59 197.96 219.53"/><polygon class="cls-2" points="238.78 219.53 242.43 226.92 250.58 228.11 244.68 233.86 246.07 241.98 238.78 238.15 231.48 241.98 232.87 233.86 226.97 228.11 235.13 226.92 238.78 219.53"/><path class="cls-1" d="M153.45,274.71c-.93.94-1.87,1.76-2.83,2.46-1.3.96-2.18,1.48-2.62,1.54-.48.07-.77-.28-.88-1.03-.04-.27-.01-.51.08-.72.09-.2.35-.41.77-.64,1.26-.76,3.05-2.13,5.37-4.11,1.05-.9,1.82-1.38,2.29-1.45.31-.05.62.07.92.34.19.18.31.4.34.63.05.37-.14,1.05-.59,2.02-3.28,7.58-5.46,13.48-6.53,17.69-.26,1.02-.46,1.67-.61,1.93-.22.44-.48.69-.76.73-.28.04-.58-.09-.88-.4-.18-.17-.28-.37-.31-.59-.12-.8.64-3.62,2.28-8.44,1.53-4.53,2.85-7.86,3.97-9.98Z"/><path class="cls-1" d="M167.53,275.71c.92-.13,1.64-.07,2.15.19.51.26.81.72.91,1.39.13.88-.08,1.77-.61,2.69-.51.86-1.36,1.63-2.54,2.28-.65.35-1.2.56-1.66.63-.62.09-.98-.14-1.06-.69-.05-.37.08-.68.41-.93.08-.06.57-.26,1.46-.6.53-.2,1-.53,1.4-1,.35-.4.5-.8.44-1.2-.05-.31-.17-.53-.37-.65-.2-.12-.48-.16-.84-.11-.86.13-1.76.61-2.7,1.46-1.09.96-1.56,1.99-1.4,3.07.11.77.65,1.68,1.6,2.73,1.06,1.14,1.66,2.14,1.78,3.02.19,1.31-.24,2.42-1.29,3.33-.65.57-1.42.91-2.33,1.05-1.43.21-2.59-.15-3.48-1.06-.63-.65-1.01-1.48-1.16-2.47-.17-1.16-.01-2.18.47-3.05.31-.58.67-.89,1.09-.96.37-.05.58.07.62.37.02.12-.02.31-.12.56-.25.69-.31,1.47-.18,2.33.11.73.46,1.31,1.05,1.74.53.38,1.09.53,1.68.44.58-.08,1.01-.34,1.28-.78.22-.37.29-.8.22-1.31-.09-.62-.57-1.38-1.42-2.27-1.18-1.22-1.85-2.4-2.01-3.51-.22-1.49.4-2.92,1.86-4.3,1.42-1.33,3-2.12,4.76-2.38Z"/><path class="cls-1" d="M177.14,274.76c-.75,1.64-1.4,3.45-1.94,5.43-.79,2.82-1.09,4.88-.9,6.19.05.37.17.64.36.81.18.17.43.23.74.19.74-.11,1.54-.94,2.39-2.49.54-.96,1.01-1.91,1.41-2.85.21-.53.48-.82.81-.87.19-.03.37.02.52.13.14.12.22.24.24.38.08.55-.46,1.88-1.63,3.99-1.39,2.54-2.8,3.92-4.23,4.12-.76.11-1.44-.15-2.05-.77-.38-.4-.63-1.01-.74-1.83-.26-1.8-.05-3.97.64-6.52.17-.63.66-2.17,1.47-4.61-.39.16-.68.26-.89.29-.31.05-.6.01-.86-.1-.36-.16-.56-.4-.6-.71-.05-.37.12-.7.52-.99.11-.08.65-.25,1.61-.53.35-.11.85-.33,1.5-.65.38-1.01,1.05-2.41,1.99-4.18.52-.99.89-1.63,1.11-1.94.3-.42.59-.66.86-.69.19-.03.4.05.63.23.21.17.32.35.35.54.06.39-.25,1.21-.91,2.48-.44.82-.76,1.49-.96,1.98,1.59-.69,2.73-1.08,3.45-1.19.82-.12,1.28.16,1.38.85.05.34-.05.61-.31.82-.14.11-.51.24-1.13.39-.26.02-1.34.47-3.24,1.34-.53.24-1.04.49-1.55.75Z"/><path class="cls-1" d="M198.34,274.25c.55-.47.97-.81,1.24-1,.57-.39,1.14-.62,1.72-.71.65-.1,1.17.02,1.56.35.38.33.63.88.74,1.63.15,1.04-.03,2.34-.55,3.91-.79,2.47-1.9,4.48-3.31,6.04-1.19,1.31-2.38,2.06-3.57,2.23-.65.09-1.34-.06-2.05-.48-1.44,4.42-2.65,8.88-3.63,13.4-.19,1.08-.52,1.65-.98,1.71-.22.03-.47-.08-.73-.35-.19-.18-.31-.4-.35-.66-.12-.8.48-3.56,1.8-8.26,2.04-7.25,4.09-13.33,6.16-18.23.43-1.03.71-1.74.85-2.13.38-1.04.81-1.6,1.3-1.67.51-.07.8.19.89.8.05.34-.06.83-.33,1.46-.32.81-.58,1.45-.77,1.93ZM194.67,284.23c.38.29.81.41,1.3.33,1.38-.2,2.73-1.65,4.06-4.35.49-1,.85-2,1.09-3.01.19-.8.25-1.39.2-1.78-.04-.27-.13-.46-.28-.58-.15-.12-.35-.15-.62-.11-.7.1-1.48.71-2.35,1.82-.83,1.08-1.57,2.53-2.21,4.35-.59,1.68-.98,2.79-1.18,3.32Z"/><path class="cls-1" d="M208.27,277.33c-.28,1.22-.47,2.21-.59,2.96-.12.75-.16,1.26-.12,1.54.05.37.26.53.62.48.54-.08,1.15-.68,1.85-1.82.33-.55.8-1.52,1.4-2.91.24-.55.53-.85.87-.9.39-.06.61.1.66.47.09.64-.45,2.04-1.64,4.2-1.24,2.26-2.51,3.49-3.81,3.68-.57.08-1.06-.09-1.49-.51-.3-.3-.49-.7-.56-1.19-.12-.83-.04-2.02.25-3.57.29-1.55.78-3.45,1.47-5.7,1.78-5.74,3.74-10.54,5.89-14.41,1.72-3.1,3.28-4.76,4.67-4.96.45-.07.83.05,1.17.35.35.3.55.67.62,1.12.3,2.08-1.05,5.82-4.06,11.21-1.35,2.4-3.03,4.85-5.03,7.34-.53.65-1.25,1.53-2.17,2.64ZM209.33,273.56c2.71-3.1,4.98-6.84,6.83-11.25.96-2.28,1.39-3.76,1.29-4.45-.05-.33-.21-.47-.5-.43-.82.12-2.07,1.96-3.75,5.54-1.39,2.94-2.69,6.47-3.88,10.59Z"/><path class="cls-1" d="M221.52,279.21c-.37.93-.74,1.73-1.13,2.4-.77,1.3-1.61,2.01-2.53,2.15-.8.12-1.48-.17-2.04-.86-.35-.45-.58-1.01-.68-1.68-.24-1.65.01-3.55.76-5.69.84-2.38,1.99-4.29,3.45-5.72.96-.93,1.93-1.47,2.93-1.61.62-.09,1.17.03,1.65.35.41.29.64.65.7,1.08.05.33-.01.8-.18,1.42.27.28.42.54.45.78.05.31-.09.86-.4,1.63-.33.79-.62,1.82-.87,3.09-.28,1.35-.36,2.41-.24,3.18.09.62.35,1.11.78,1.46.12.09.45.22.99.38.4.12.63.41.69.85.04.28-.03.53-.21.74-.2.23-.44.36-.74.4-.8.12-1.55-.14-2.23-.77-.56-.51-.9-1.2-1.03-2.08-.04-.3-.08-.79-.13-1.48ZM223.24,271.46c-.23-.3-.45-.52-.69-.64-.23-.13-.47-.17-.7-.14-1.13.16-2.21,1.33-3.25,3.5-1.14,2.4-1.6,4.36-1.38,5.87.05.37.17.64.33.82.17.17.4.24.68.2.71-.1,1.44-.98,2.17-2.64.41-.91.9-2.23,1.45-3.97.37-1.13.64-1.88.83-2.26.09-.2.28-.44.55-.74Z"/><path class="cls-1" d="M233.38,267.11c1.17-.17,1.85.36,2.03,1.59.16,1.09-.11,2.24-.79,3.46-.53.93-1.05,1.43-1.54,1.5-.42.06-.66-.15-.73-.62-.04-.25,0-.46.09-.63.04-.07.19-.26.46-.59.23-.29.45-.71.66-1.26.14-.37.2-.66.17-.87-.03-.24-.19-.34-.45-.3-.31.05-.75.36-1.32.94-.9.94-1.73,2.32-2.49,4.14-.78,1.91-1.1,3.36-.96,4.38.05.33.19.6.42.83.34.35.75.48,1.22.41.94-.14,1.96-.88,3.07-2.22.94-1.15,1.71-2.28,2.31-3.39.31-.61.6-.93.88-.97.16-.02.32.03.48.16.14.13.22.27.24.42.08.55-.47,1.72-1.65,3.52-1.88,2.83-3.74,4.37-5.57,4.64-1.1.16-2-.11-2.69-.81-.5-.52-.81-1.17-.92-1.96-.23-1.55.15-3.43,1.13-5.65.95-2.13,2.15-3.9,3.6-5.33.85-.82,1.63-1.29,2.35-1.39Z"/><path class="cls-1" d="M240.93,275.76l.06.4c.05.33.17.6.37.81.45.5,1.1.68,1.95.56,1.86-.27,3.8-2.01,5.82-5.22.36-.55.69-.85.99-.89.16-.02.32.04.48.18.11.11.17.21.18.31.08.58-.49,1.67-1.71,3.26-.96,1.25-2.02,2.31-3.18,3.17-1.16.87-2.29,1.38-3.37,1.54-1.12.16-2.05-.1-2.8-.78-.51-.47-.83-1.17-.97-2.09-.37-2.51.46-5.15,2.47-7.9,1.63-2.24,3.16-3.47,4.59-3.68.39-.06.75.01,1.1.2.43.26.68.64.76,1.14.12.79-.11,1.81-.67,3.06-1.15,2.6-3.18,4.57-6.06,5.92ZM241.16,273.95c.99-.51,1.75-1.03,2.28-1.56.92-.95,1.62-1.98,2.08-3.08.17-.39.24-.73.19-1.01-.04-.3-.21-.43-.49-.38-.39.06-.89.43-1.52,1.11-1.13,1.21-1.98,2.85-2.54,4.93Z"/><path class="cls-3" d="M214.64,96.68l15.96-4.7v15.85h13.44v11.91h-13.44v26.45c0,7.32,2.3,10.38,7.21,10.38,2.3,0,3.61-.22,5.25-.55l.22,12.35c-2.19.87-6.12,1.42-10.82,1.42-17.49,0-17.82-15.19-17.82-21.97v-28.09h-7.98v-11.91h7.98v-11.15Z"/><path class="cls-3" d="M306.13,168.71h-16.18v-35.09c0-7.76-2.4-13.77-9.4-13.77-4.04,0-10.27,2.84-10.27,11.91v36.94h-16.18v-87.88h16.18v34.32h.22c4.37-6.34,11.04-8.63,16.29-8.63,10.82,0,19.35,7.87,19.35,25.8v36.4Z"/></g></g></svg>