<?xml version="1.0" encoding="UTF-8"?><svg id="_レイヤー_2" xmlns="http://www.w3.org/2000/svg" xmlns:xlink="http://www.w3.org/1999/xlink" viewBox="0 0 198.37 189.37"><defs><style>.cls-1{fill:url(#_名称未設定グラデーション_37-3);}.cls-2{fill:url(#_名称未設定グラデーション_37-2);}.cls-3{fill:url(#_名称未設定グラデーション_37-5);}.cls-4{fill:url(#_名称未設定グラデーション_37-4);}.cls-5{fill:#fbd4e0;}.cls-6{fill:url(#_名称未設定グラデーション_37);}</style><radialGradient id="_名称未設定グラデーション_37" cx="99.19" cy="94.69" fx="99.19" fy="94.69" r="96.96" gradientUnits="userSpaceOnUse"><stop offset="0" stop-color="#f36f97"/><stop offset="1" stop-color="#fbd4e0"/></radialGradient><radialGradient id="_名称未設定グラデーション_37-2" cx="99.19" cy="94.69" fx="99.19" fy="94.69" r="96.96" xlink:href="#_名称未設定グラデーション_37"/><radialGradient id="_名称未設定グラデーション_37-3" cx="99.19" cy="94.69" fx="99.19" fy="94.69" r="96.96" xlink:href="#_名称未設定グラデーション_37"/><radialGradient id="_名称未設定グラデーション_37-4" cx="99.19" cy="94.69" fx="99.19" fy="94.69" r="96.96" xlink:href="#_名称未設定グラデーション_37"/><radialGradient id="_名称未設定グラデーション_37-5" cx="99.19" cy="94.69" fx="99.19" fy="94.69" r="96.96" xlink:href="#_名称未設定グラデーション_37"/></defs><g id="design"><path class="cls-5" d="M106.94,0l-8.41,11.25L90.12,0c-13.36,5.03-24.08,21.54-22.14,40.96,2.9,29.04,31.2,42.53,31.2,42.53,0,0,26.88-14.99,29.88-42.53C131.16,21.56,120.34,5.05,106.94,0Z"/><path class="cls-5" d="M50.98,56.92c-17.79-8-36.85-2.81-45.78,8.37l8.1,11.48-13.31,4.52c.65,14.26,13.04,29.56,32.11,33.71,28.52,6.21,50.09-16.53,50.09-16.53,0,0-5.95-30.19-31.22-41.56Z"/><path class="cls-5" d="M89.62,115.52s-30.55-3.67-49.17,16.85c-13.11,14.45-14.05,34.17-6.17,46.12l13.41-4.16.19,14.05c13.76,3.79,32.14-3.26,41.99-20.11,14.72-25.2-.24-52.75-.24-52.75Z"/><path class="cls-5" d="M153.57,173.34l13.42,4.16c7.85-11.92,6.84-31.57-6.15-46.15-19.42-21.79-50.24-16.07-50.24-16.07,0,0-12.93,27.92.83,51.97,9.69,16.93,28.16,23.92,41.96,20.12l.19-14.04Z"/><path class="cls-5" d="M185.07,75.04l8.11-11.48c-8.91-11.15-27.93-16.25-45.79-8.4-26.72,11.74-30.81,42.82-30.81,42.82,0,0,22.56,20.93,49.68,15.27,19.1-3.99,31.46-19.39,32.11-33.68l-13.3-4.52Z"/><path class="cls-6" d="M106.94,0l-8.41,11.25L90.12,0c-13.36,5.03-24.08,21.54-22.14,40.96,2.9,29.04,31.2,42.53,31.2,42.53,0,0,26.88-14.99,29.88-42.53C131.16,21.56,120.34,5.05,106.94,0Z"/><path class="cls-2" d="M50.98,56.92c-17.79-8-36.85-2.81-45.78,8.37l8.1,11.48-13.31,4.52c.65,14.26,13.04,29.56,32.11,33.71,28.52,6.21,50.09-16.53,50.09-16.53,0,0-5.95-30.19-31.22-41.56Z"/><path class="cls-1" d="M89.62,115.52s-30.55-3.67-49.17,16.85c-13.11,14.45-14.05,34.17-6.17,46.12l13.41-4.16.19,14.05c13.76,3.79,32.14-3.26,41.99-20.11,14.72-25.2-.24-52.75-.24-52.75Z"/><path class="cls-4" d="M153.57,173.34l13.42,4.16c7.85-11.92,6.84-31.57-6.15-46.15-19.42-21.79-50.24-16.07-50.24-16.07,0,0-12.93,27.92.83,51.97,9.69,16.93,28.16,23.92,41.96,20.12l.19-14.04Z"/><path class="cls-3" d="M185.07,75.04l8.11-11.48c-8.91-11.15-27.93-16.25-45.79-8.4-26.72,11.74-30.81,42.82-30.81,42.82,0,0,22.56,20.93,49.68,15.27,19.1-3.99,31.46-19.39,32.11-33.68l-13.3-4.52Z"/></g></svg>