<?xml version="1.0" encoding="UTF-8"?><svg id="_レイヤー_2" xmlns="http://www.w3.org/2000/svg" viewBox="0 0 234.61 225.72"><defs><style>.cls-1{fill:#ffc8d8;}.cls-1,.cls-2{stroke:#ffc8d8;stroke-linecap:round;stroke-linejoin:round;stroke-width:7.37px;}.cls-2{fill:none;}</style></defs><g id="design"><path class="cls-2" d="M230.92,94.72l-19.34-6.57,11.79-16.7c-11.3-15.12-33.95-23.73-57.72-19.57-3.47-23.55-18.66-42.15-36.41-48.18l-12.23,16.36-12.24-16.37c-17.87,6.08-33.06,24.96-36.44,48.85-23.47-3.98-45.85,4.73-57.08,19.74l11.78,16.69-19.35,6.58c.26,18.87,13.52,39.16,35.19,49.76-11.03,21.09-9.67,45.07,1.13,60.38l19.51-6.05.28,20.44c18.03,5.59,41.42-.76,58.2-18.1,16.65,17.01,39.87,23.13,57.77,17.59l.28-20.43,19.53,6.05c10.89-15.42,12.08-39.63.77-60.94,21.33-10.58,34.32-30.77,34.57-49.52Z"/><path class="cls-1" d="M121.43,80.49c0,2.28-1.85,4.12-4.12,4.12s-4.12-1.85-4.12-4.12,1.85-4.12,4.12-4.12,4.12,1.85,4.12,4.12Z"/><path class="cls-1" d="M113.18,160.93c0-2.28,1.85-4.12,4.12-4.12s4.12,1.85,4.12,4.12-1.85,4.12-4.12,4.12-4.12-1.85-4.12-4.12Z"/><line class="cls-2" x1="117.3" y1="84.62" x2="117.3" y2="156.81"/><path class="cls-1" d="M144.28,90.6c-1.34,1.84-3.92,2.25-5.76.91-1.84-1.34-2.25-3.92-.91-5.76,1.34-1.84,3.92-2.25,5.76-.91,1.84,1.34,2.25,3.92.91,5.76Z"/><path class="cls-1" d="M90.33,150.83c1.34-1.84,3.92-2.25,5.76-.91,1.84,1.34,2.25,3.92.91,5.76-1.34,1.84-3.92,2.25-5.76.91-1.84-1.34-2.25-3.92-.91-5.76Z"/><line class="cls-2" x1="138.52" y1="91.51" x2="96.09" y2="149.91"/><path class="cls-1" d="M156.83,112.21c-2.17.7-4.49-.48-5.2-2.65-.7-2.17.48-4.49,2.65-5.2,2.17-.7,4.49.48,5.2,2.65.7,2.17-.48,4.49-2.65,5.2Z"/><path class="cls-1" d="M77.78,129.22c2.17-.7,4.49.48,5.2,2.65.7,2.17-.48,4.49-2.65,5.2-2.17.7-4.49-.48-5.2-2.65-.7-2.17.48-4.49,2.65-5.2Z"/><line class="cls-2" x1="151.63" y1="109.56" x2="82.98" y2="131.87"/><path class="cls-1" d="M154.28,137.06c-2.17-.7-3.35-3.03-2.65-5.2.7-2.17,3.03-3.35,5.2-2.65,2.17.7,3.35,3.03,2.65,5.2-.7,2.17-3.03,3.35-5.2,2.65Z"/><path class="cls-1" d="M80.33,104.36c2.17.7,3.35,3.03,2.65,5.2-.7,2.17-3.03,3.35-5.2,2.65s-3.35-3.03-2.65-5.2c.7-2.17,3.03-3.35,5.2-2.65Z"/><line class="cls-2" x1="151.63" y1="131.87" x2="82.98" y2="109.56"/><path class="cls-1" d="M137.61,155.68c-1.34-1.84-.93-4.42.91-5.76,1.84-1.34,4.42-.93,5.76.91,1.34,1.84.93,4.42-.91,5.76-1.84,1.34-4.42.93-5.76-.91Z"/><path class="cls-1" d="M97,85.75c1.34,1.84.93,4.42-.91,5.76-1.84,1.34-4.42.93-5.76-.91-1.34-1.84-.93-4.42.91-5.76,1.84-1.34,4.42-.93,5.76.91Z"/><line class="cls-2" x1="138.52" y1="149.91" x2="96.09" y2="91.51"/></g></svg>