<?xml version="1.0" encoding="UTF-8"?><svg id="_レイヤー_2" xmlns="http://www.w3.org/2000/svg" viewBox="0 0 234.61 225.72"><defs><style>.cls-1{fill:none;stroke:#ffc8d8;stroke-linecap:round;stroke-linejoin:round;stroke-width:7.37px;}</style></defs><g id="design"><path class="cls-1" d="M162.38,38.8c-6.18-17.21-18.83-30.24-33.14-35.1l-12.23,16.36-12.24-16.37c-13.4,4.56-25.3,16.32-31.84,31.99"/><path class="cls-1" d="M207.84,137.03c14.41-11.2,22.87-27.22,23.08-42.31l-19.34-6.57,11.79-16.7c-8.4-11.23-23.06-18.88-39.79-20.35"/><path class="cls-1" d="M131.53,212.67c14.39,8.64,30.81,11.04,44.24,6.88l.28-20.43,19.53,6.05c8.16-11.57,10.88-28.07,6.95-44.59"/><path class="cls-1" d="M32.88,161.47c-3.77,16.36-.97,32.72,7.13,44.2l19.51-6.05.28,20.44c12.4,3.84,27.34,2.04,40.92-5.11"/><path class="cls-1" d="M55.3,51.59c-18.44.45-34.92,8.49-44.04,20.68l11.78,16.69-19.35,6.58c.19,14.02,7.56,28.82,20.22,39.84"/></g></svg>