<?xml version="1.0" encoding="UTF-8"?><svg id="_レイヤー_2" xmlns="http://www.w3.org/2000/svg" viewBox="0 0 216.42 207.95"><defs><style>.cls-1{fill:#ffc8d8;}</style></defs><g id="design"><path class="cls-1" d="M119.58.01l-11.65,15.58L96.28,0c-20.96,7.13-38.05,32.75-35.03,63,4.44,44.37,47.67,64.98,47.67,64.98,0,0,41.06-22.9,45.64-64.98C157.85,32.79,140.59,7.16,119.58.01Z"/><path class="cls-1" d="M77.93,51.51c-27.71-12.46-57.43-3.97-70.72,13.8l11.22,15.89L0,87.48c.3,22.14,19.39,46.31,49.09,52.78,43.57,9.49,76.53-25.26,76.53-25.26,0,0-9.09-46.13-47.69-63.49Z"/><path class="cls-1" d="M118.44,95.11s-46.68-5.61-75.12,25.74c-20.42,22.51-21.52,53.39-8.72,71.52l18.58-5.76.26,19.47c21.15,6.55,50.04-4.13,65.37-30.38,22.49-38.5-.37-80.59-.37-80.59Z"/><path class="cls-1" d="M164.15,186.13l18.6,5.77c12.77-18.09,11.53-48.87-8.69-71.56-29.67-33.29-76.76-24.55-76.76-24.55,0,0-19.76,42.66,1.27,79.39,15.1,26.37,44.13,36.97,65.33,30.4l.26-19.45Z"/><path class="cls-1" d="M198,80.44l11.23-15.9c-13.26-17.73-42.91-26.07-70.74-13.85-40.82,17.93-47.06,65.42-47.06,65.42,0,0,34.47,31.98,75.9,23.33,29.75-6.21,48.79-30.54,49.1-52.74l-18.42-6.26Z"/></g></svg>