<?xml version="1.0" encoding="UTF-8"?><svg id="_レイヤー_2" xmlns="http://www.w3.org/2000/svg" viewBox="0 0 227.77 218.54"><defs><style>.cls-1{fill:#ffc8d8;}.cls-2{fill:#fff;}</style></defs><g id="design"><path class="cls-1" d="M124.95.01l-11.68,15.63L101.58,0c-18.55,6.98-33.45,29.91-30.75,56.88,4.03,40.33,43.34,59.07,43.34,59.07,0,0,37.33-20.82,41.49-59.07C158.59,29.95,143.55,7.01,124.95.01Z"/><path class="cls-1" d="M70.81,58.24c-24.71-11.11-51.17-3.9-63.58,11.63l11.26,15.94L0,92.09c.91,19.8,18.11,41.05,44.6,46.82,39.61,8.63,69.57-22.96,69.57-22.96,0,0-8.26-41.94-43.36-57.72Z"/><path class="cls-1" d="M114.17,115.95s-42.44-5.1-68.29,23.4c-18.2,20.07-19.52,47.47-8.59,64.06l18.64-5.78.26,19.52c19.11,5.25,44.64-4.54,58.31-27.95,20.44-35-.34-73.26-.34-73.26Z"/><path class="cls-1" d="M173.86,196.58l18.65,5.78c10.9-16.56,9.48-43.86-8.56-64.1-26.97-30.26-69.78-22.32-69.78-22.32,0,0-17.96,38.78,1.15,72.18,13.46,23.52,39.11,33.23,58.27,27.96l.26-19.51Z"/><path class="cls-1" d="M209.29,84.1l11.26-15.95c-12.38-15.49-38.78-22.57-63.6-11.67-37.11,16.3-42.79,59.47-42.79,59.47,0,0,31.33,29.07,69,21.21,26.52-5.54,43.69-26.93,44.6-46.78l-18.47-6.28Z"/><circle class="cls-2" cx="114.24" cy="86.21" r="9.13" transform="translate(-27.5 106.03) rotate(-45)"/><path class="cls-2" d="M89.92,96.49c4.79,1.56,7.42,6.71,5.86,11.5-1.56,4.79-6.71,7.42-11.5,5.86s-7.42-6.71-5.86-11.5c1.56-4.79,6.71-7.42,11.5-5.86Z"/><path class="cls-2" d="M89.37,131.48c2.96-4.08,8.67-4.98,12.75-2.02,4.08,2.96,4.98,8.67,2.02,12.75s-8.67,4.98-12.75,2.02c-4.08-2.96-4.98-8.67-2.02-12.75Z"/><path class="cls-2" d="M122.47,142.82c-2.96-4.08-2.06-9.78,2.02-12.75,4.08-2.96,9.78-2.06,12.75,2.02,2.96,4.08,2.06,9.78-2.02,12.75-4.08,2.96-9.78,2.06-12.75-2.02Z"/><path class="cls-2" d="M143.49,114.84c-4.79,1.56-9.94-1.07-11.5-5.86-1.56-4.79,1.07-9.94,5.86-11.5s9.94,1.07,11.5,5.86c1.56,4.79-1.07,9.94-5.86,11.5Z"/></g></svg>