<?xml version="1.0" encoding="UTF-8"?><svg id="_レイヤー_2" xmlns="http://www.w3.org/2000/svg" viewBox="0 0 227.77 218.54"><defs><style>.cls-1{fill:#ffc8d8;}.cls-2{fill:none;stroke:#fff;stroke-linecap:round;stroke-linejoin:round;stroke-width:4.61px;}</style></defs><g id="design"><path class="cls-1" d="M124.95.01l-11.68,15.63L101.58,0c-18.55,6.98-33.45,29.91-30.75,56.88,4.03,40.33,43.34,59.07,43.34,59.07,0,0,37.33-20.82,41.49-59.07C158.59,29.95,143.55,7.01,124.95.01Z"/><path class="cls-1" d="M70.81,58.24c-24.71-11.11-51.17-3.9-63.58,11.63l11.26,15.94L0,92.09c.91,19.8,18.11,41.06,44.6,46.82,39.61,8.63,69.57-22.96,69.57-22.96,0,0-8.26-41.94-43.36-57.72Z"/><path class="cls-1" d="M114.17,115.95s-42.44-5.1-68.29,23.4c-18.2,20.07-19.52,47.47-8.59,64.06l18.64-5.78.26,19.52c19.11,5.25,44.64-4.54,58.31-27.95,20.44-35-.34-73.26-.34-73.26Z"/><path class="cls-1" d="M173.86,196.58l18.65,5.78c10.9-16.56,9.48-43.86-8.56-64.1-26.97-30.26-69.78-22.31-69.78-22.31,0,0-17.96,38.78,1.15,72.18,13.46,23.52,39.11,33.23,58.27,27.96l.26-19.51Z"/><path class="cls-1" d="M209.29,84.1l11.26-15.95c-12.38-15.49-38.78-22.57-63.6-11.67-37.11,16.3-42.79,59.47-42.79,59.47,0,0,31.33,29.07,69,21.21,26.52-5.54,43.69-26.93,44.6-46.78l-18.47-6.28Z"/><circle class="cls-2" cx="113.89" cy="71.12" r="4.55"/><circle class="cls-2" cx="113.89" cy="159.79" r="4.55"/><line class="cls-2" x1="113.89" y1="75.67" x2="113.89" y2="155.25"/><path class="cls-2" d="M143.63,82.26c-1.48,2.03-4.32,2.48-6.35,1.01-2.03-1.48-2.48-4.32-1.01-6.35s4.32-2.48,6.35-1.01,2.48,4.32,1.01,6.35Z"/><path class="cls-2" d="M84.15,148.65c1.48-2.03,4.32-2.48,6.35-1.01s2.48,4.32,1.01,6.35-4.32,2.48-6.35,1.01c-2.03-1.48-2.48-4.32-1.01-6.35Z"/><line class="cls-2" x1="137.28" y1="83.27" x2="90.5" y2="147.65"/><path class="cls-2" d="M157.46,106.08c-2.39.78-4.95-.53-5.73-2.92-.78-2.39.53-4.95,2.92-5.73,2.39-.78,4.95.53,5.73,2.92.78,2.39-.53,4.95-2.92,5.73Z"/><path class="cls-2" d="M70.32,124.83c2.39-.78,4.95.53,5.73,2.92.78,2.39-.53,4.95-2.92,5.73s-4.95-.53-5.73-2.92c-.78-2.39.53-4.95,2.92-5.73Z"/><line class="cls-2" x1="151.73" y1="103.16" x2="76.05" y2="127.75"/><path class="cls-2" d="M154.65,133.48c-2.39-.78-3.69-3.34-2.92-5.73.78-2.39,3.34-3.69,5.73-2.92,2.39.78,3.69,3.34,2.92,5.73-.78,2.39-3.34,3.69-5.73,2.92Z"/><path class="cls-2" d="M73.13,97.43c2.39.78,3.7,3.34,2.92,5.73-.78,2.39-3.34,3.69-5.73,2.92-2.39-.78-3.69-3.34-2.92-5.73.78-2.39,3.34-3.69,5.73-2.92Z"/><line class="cls-2" x1="151.73" y1="127.75" x2="76.05" y2="103.16"/><path class="cls-2" d="M136.27,154c-1.48-2.03-1.03-4.87,1.01-6.35s4.87-1.03,6.35,1.01,1.03,4.87-1.01,6.35c-2.03,1.48-4.87,1.03-6.35-1.01Z"/><path class="cls-2" d="M91.51,76.92c1.48,2.03,1.03,4.87-1.01,6.35-2.03,1.48-4.87,1.03-6.35-1.01s-1.03-4.87,1.01-6.35,4.87-1.03,6.35,1.01Z"/><line class="cls-2" x1="137.28" y1="147.65" x2="90.5" y2="83.27"/></g></svg>