<?xml version="1.0" encoding="UTF-8"?><svg id="_レイヤー_2" xmlns="http://www.w3.org/2000/svg" viewBox="0 0 372.11 284.42"><defs><style>.cls-1{fill:#b6b7be;}.cls-2{fill:#828282;}.cls-3{fill:#999;}</style></defs><g id="_レイヤー_1-2"><g id="silver"><path class="cls-1" d="M90.87,237.44s-13.88-5.41-16.97-18.64c-3.09-13.23,3.1-27.36,3.1-27.36,0,0,10.13,12.5,12.66,21.06,2.53,8.56,1.21,24.94,1.21,24.94Z"/><path class="cls-3" d="M92.43,244.26s-14.4-11.7-28.75-14.63c-14.35-2.93-24.67.75-24.67.75,0,0,10.83,13.55,26.18,16.3,9.72,1.74,27.24-2.42,27.24-2.42Z"/><path class="cls-3" d="M64.67,208.01s-8.38-7.51-9.73-19.66c-1.35-12.15,6.65-25.28,6.65-25.28,0,0,5.99,14.46,7,23.89s-3.92,21.05-3.92,21.05Z"/><path class="cls-3" d="M65.55,219.05s-6.2-11.6-21.19-18.33c-14.99-6.74-24.9-4.63-24.9-4.63,0,0,8.8,15.1,17.96,20.75,9.16,5.65,28.14,2.22,28.14,2.22Z"/><path class="cls-3" d="M45.53,176.43s-6.81-11.92-5.35-23.65c1.46-11.73,9.55-16.9,9.55-16.9,0,0,3.59,12.15,3.07,19.75-.52,7.6-7.27,20.8-7.27,20.8Z"/><path class="cls-1" d="M44.29,184.83s-6.61-14.77-22.06-22.3c-11.56-5.63-18.31-6.19-18.31-6.19,0,0,6.4,18.73,15.69,25.41,9.29,6.68,24.68,3.08,24.68,3.08Z"/><path class="cls-1" d="M31.97,143.08s-2.58-13.33,2.38-23.95c4.95-10.62,13.96-13.01,13.96-13.01,0,0-.45,12.57-3.26,19.57-2.82,7.01-13.07,17.39-13.07,17.39Z"/><path class="cls-3" d="M28.59,150.62s-1.85-15.41-13.56-27.33c-8.69-8.84-15.02-11.31-15.02-11.31,0,0,.19,19.26,6.73,28.26,6.54,9,21.86,10.38,21.86,10.38Z"/><path class="cls-3" d="M30.6,108.23s.07-12.58,6.45-21.26c6.38-8.68,14.94-9.12,14.94-9.12,0,0-2.66,11.31-6.46,17.12s-14.93,13.26-14.93,13.26Z"/><path class="cls-3" d="M25.27,112.47s1.3-13.61-6.54-25.69c-6.51-10.03-10.53-12.26-10.53-12.26,0,0-3.18,16.49.7,25.32,3.87,8.82,16.37,12.64,16.37,12.64Z"/><path class="cls-3" d="M35.07,75.75s2.99-11.34,10.75-17.6c7.76-6.26,15.56-4.55,15.56-4.55,0,0-5.03,9.55-9.8,13.86-4.77,4.31-16.51,8.3-16.51,8.3Z"/><path class="cls-1" d="M27.97,79.56s7.1-10.98,4.9-24.3c-1.81-10.98-3.85-14.67-3.85-14.67,0,0-9.3,12.54-9.62,21.56s8.57,17.41,8.57,17.41Z"/><path class="cls-1" d="M46.24,47.3s5.1-8.35,12.81-11.42c7.7-3.08,13.53.26,13.53.26,0,0-6.3,6.4-11.15,8.66-4.85,2.26-15.19,2.5-15.19,2.5Z"/><path class="cls-3" d="M39.79,50.48s7.95-7.68,8.28-19.05c.27-9.18-.55-12.78-.55-12.78,0,0-9.79,8.56-11.65,15.91-1.85,7.35,3.91,15.92,3.91,15.92Z"/><path class="cls-3" d="M60.87,27.59s4.54-4.82,10.08-5.74c5.55-.92,8.97,2.16,8.97,2.16,0,0-5.07,3.34-8.6,4.14-3.53.79-10.45-.56-10.45-.56Z"/><path class="cls-3" d="M55.74,27.66s6.31-3.88,8.3-11.38c1.41-5.32,1.53-8.59,1.53-8.59,0,0-7.75,4.15-10.06,8.76s.23,11.22.23,11.22Z"/><path class="cls-3" d="M69.69,15.43s-1.2-6.41,3.81-11.23C78.51-.63,86.16.03,86.16.03c0,0-2.1,6.28-5.99,9.82-3.89,3.54-10.48,5.57-10.48,5.57Z"/><path class="cls-3" d="M281.24,237.44s13.88-5.41,16.97-18.64c3.09-13.23-3.1-27.36-3.1-27.36,0,0-10.13,12.5-12.66,21.06-2.53,8.56-1.21,24.94-1.21,24.94Z"/><path class="cls-3" d="M279.68,244.26s14.4-11.7,28.75-14.63c14.35-2.93,24.67.75,24.67.75,0,0-10.83,13.55-26.18,16.3-9.72,1.74-27.24-2.42-27.24-2.42Z"/><path class="cls-1" d="M307.44,208.01s8.38-7.51,9.73-19.66c1.35-12.15-6.65-25.28-6.65-25.28,0,0-5.99,14.46-7,23.89s3.92,21.05,3.92,21.05Z"/><path class="cls-3" d="M306.55,219.05s6.2-11.6,21.19-18.33c14.99-6.74,24.9-4.63,24.9-4.63,0,0-8.8,15.1-17.96,20.75-9.16,5.65-28.14,2.22-28.14,2.22Z"/><path class="cls-3" d="M326.58,176.43s6.81-11.92,5.35-23.65c-1.46-11.73-9.55-16.9-9.55-16.9,0,0-3.59,12.15-3.07,19.75.52,7.6,7.27,20.8,7.27,20.8Z"/><path class="cls-3" d="M327.81,184.83s6.61-14.77,22.06-22.3c11.56-5.63,18.31-6.19,18.31-6.19,0,0-6.4,18.73-15.69,25.41-9.29,6.68-24.68,3.08-24.68,3.08Z"/><path class="cls-3" d="M340.14,143.08s2.58-13.33-2.38-23.95c-4.95-10.62-13.96-13.01-13.96-13.01,0,0,.45,12.57,3.26,19.57,2.82,7.01,13.07,17.39,13.07,17.39Z"/><path class="cls-1" d="M343.52,150.62s1.85-15.41,13.56-27.33c8.69-8.84,15.02-11.31,15.02-11.31,0,0-.19,19.26-6.73,28.26-6.54,9-21.86,10.38-21.86,10.38Z"/><path class="cls-3" d="M341.51,108.23s-.07-12.58-6.45-21.26c-6.38-8.68-14.94-9.12-14.94-9.12,0,0,2.66,11.31,6.46,17.12s14.93,13.26,14.93,13.26Z"/><path class="cls-3" d="M346.84,112.47s-1.3-13.61,6.54-25.69c6.51-10.03,10.53-12.26,10.53-12.26,0,0,3.18,16.49-.7,25.32-3.87,8.82-16.37,12.64-16.37,12.64Z"/><path class="cls-1" d="M337.04,75.75s-2.99-11.34-10.75-17.6c-7.76-6.26-15.56-4.55-15.56-4.55,0,0,5.03,9.55,9.8,13.86,4.77,4.31,16.51,8.3,16.51,8.3Z"/><path class="cls-3" d="M344.13,79.56s-7.1-10.98-4.9-24.3c1.81-10.98,3.85-14.67,3.85-14.67,0,0,9.3,12.54,9.62,21.56.32,9.02-8.57,17.41-8.57,17.41Z"/><path class="cls-3" d="M325.86,47.3s-5.1-8.35-12.81-11.42c-7.7-3.08-13.53.26-13.53.26,0,0,6.3,6.4,11.15,8.66s15.19,2.5,15.19,2.5Z"/><path class="cls-3" d="M332.32,50.48s-7.95-7.68-8.28-19.05c-.27-9.18.55-12.78.55-12.78,0,0,9.79,8.56,11.65,15.91,1.85,7.35-3.91,15.92-3.91,15.92Z"/><path class="cls-3" d="M311.24,27.59s-4.54-4.82-10.08-5.74c-5.55-.92-8.97,2.16-8.97,2.16,0,0,5.07,3.34,8.6,4.14s10.45-.56,10.45-.56Z"/><path class="cls-1" d="M316.36,27.66s-6.31-3.88-8.3-11.38c-1.41-5.32-1.53-8.59-1.53-8.59,0,0,7.75,4.15,10.06,8.76,2.32,4.6-.23,11.22-.23,11.22Z"/><path class="cls-3" d="M302.42,15.43s1.2-6.41-3.81-11.23C293.6-.63,285.95.03,285.95.03c0,0,2.1,6.28,5.99,9.82s10.48,5.57,10.48,5.57Z"/><path class="cls-2" d="M140.21,128.81h44.03c1.99,0,3.56-.75,4.7-2.24,1.14-1.49,2.12-4.29,2.94-8.39.35-1.7.91-2.83,1.67-3.38.76-.56,2.37-.83,4.83-.83,3.63,0,5.45.79,5.45,2.37,0,.53-.09,1.14-.26,1.85-.29,1.58-.91,5.36-1.85,11.34-1.05,6.5-2.1,12.17-3.12,17-1.03,4.83-1.79,7.48-2.28,7.95-.5.47-1.86.7-4.09.7h-69.34v-20.56c0-2.87,2.46-6.5,7.38-10.9,2.46-2.23,8.16-8.93,17.09-20.12,8.93-11.19,14.72-20.33,17.36-27.42,2.64-7.09,3.95-16.55,3.95-28.39,0-9.9-.95-16.27-2.86-19.11-1.9-2.84-4.64-4.26-8.22-4.26-2.7,0-4.8.76-6.33,2.28-1.52,1.52-2.28,3.52-2.28,5.98,0,1.41.15,3.11.44,5.1.35,2.64.53,5.18.53,7.65,0,5.33-1.22,9.46-3.65,12.39-2.43,2.93-5.52,4.39-9.27,4.39-3.98,0-7.15-1.58-9.49-4.75-2.34-3.16-3.52-6.97-3.52-11.42,0-9.26,3.46-17.12,10.37-23.6,6.91-6.47,16.17-9.71,27.77-9.71s21.46,3.72,29.04,11.16c7.59,7.44,11.38,17.08,11.38,28.91,0,6.56-1.35,12.85-4.04,18.85-2.7,6.01-6.37,11.34-11.03,15.99-4.66,4.66-11.47,10.5-20.43,17.53-12.3,9.55-21.27,17.43-26.89,23.64Z"/><rect class="cls-3" x="106.16" y="179.33" width="159.79" height="4.55"/><polygon class="cls-3" points="147.44 199.15 150.89 206.15 158.61 207.27 153.03 212.71 154.34 220.4 147.44 216.77 140.54 220.4 141.86 212.71 136.27 207.27 143.99 206.15 147.44 199.15"/><polygon class="cls-3" points="186.05 199.15 190.29 207.73 199.75 209.1 192.9 215.78 194.52 225.21 186.05 220.76 177.59 225.21 179.2 215.78 172.36 209.1 181.82 207.73 186.05 199.15"/><polygon class="cls-3" points="224.67 199.15 228.12 206.15 235.83 207.27 230.25 212.71 231.57 220.4 224.67 216.77 217.76 220.4 219.08 212.71 213.5 207.27 221.21 206.15 224.67 199.15"/><path class="cls-1" d="M133.39,275.33c2.43-1.17,4.71-1.92,6.85-2.23.83-.12,1.53-.05,2.1.23.5.24.78.57.84,1.01.04.29-.03.56-.21.82-.18.26-.41.41-.68.45-.09.01-.23.01-.42,0-.82-.1-1.55-.1-2.18,0-.56.08-1.24.24-2.05.46-.28.09-1.3.51-3.04,1.28-1.57.68-2.51,1.04-2.81,1.08-.42.06-.83-.09-1.2-.45-.34-.34-.54-.71-.6-1.12-.07-.45.24-1.13.91-2.01,1.27-1.67,2.51-3.19,3.72-4.56,1.14-1.28,2.57-2.77,4.29-4.48,1.96-1.94,3.3-3.34,4.03-4.21,1.08-1.27,1.55-2.45,1.39-3.54-.09-.61-.36-1.05-.8-1.35-.39-.25-.86-.34-1.39-.26-1.36.2-2.86,1.2-4.48,3-.75.82-1.23,1.25-1.44,1.28-.15.02-.34-.04-.56-.2-.24-.15-.38-.35-.41-.61-.08-.55.47-1.41,1.64-2.61,1.89-1.92,3.79-3.01,5.72-3.3,1.11-.16,2.08.06,2.93.66.81.58,1.29,1.35,1.43,2.32.25,1.7-.37,3.51-1.86,5.42-.64.84-1.84,2.13-3.61,3.87-4.27,4.18-6.97,7.2-8.11,9.05Z"/><path class="cls-1" d="M151.06,266.63c.17-.21.33-.42.49-.63,2.72-3.55,4.61-5.41,5.69-5.57.59-.09.93.2,1.03.85.07.45-.12,1.03-.56,1.73-2.4,3.8-3.42,6.99-3.04,9.57.12.83.47,1.6,1.03,2.29.26.32.41.58.44.77.03.18-.04.37-.2.56-.17.24-.38.38-.66.42-.62.09-1.2-.23-1.74-.95-.52-.68-.85-1.55-1.01-2.62-.3-2.05.14-4.42,1.33-7.13-1.87,1.62-3.45,4.23-4.73,7.84-.34.87-.76,1.34-1.28,1.42-.26.04-.48-.02-.68-.18-.24-.18-.39-.44-.44-.77-.12-.82.5-3.1,1.86-6.84.73-2.03,1.31-3.5,1.77-4.44.45-.92.89-1.41,1.3-1.47.2-.03.4.03.61.19.24.18.38.41.42.68.05.33-.1.84-.45,1.53-.5,1.02-.89,1.93-1.18,2.75Z"/><path class="cls-1" d="M167.2,258.68c1.05-3.39,2.08-6.35,3.09-8.9.97-2.46,1.65-4.02,2.03-4.68.42-.73.86-1.12,1.31-1.19.24-.04.48.03.7.2.21.17.33.37.37.6.05.35-.12.97-.52,1.86-1.68,3.87-3.17,7.76-4.47,11.68-1.5,4.57-2.1,7.91-1.79,10.03.13.86.39,1.52.8,1.97.08.1.38.3.92.61.1.06.17.21.2.44.04.3-.03.6-.23.88-.2.29-.44.45-.73.49-.35.05-.77-.11-1.25-.47-.69-.52-1.16-1.16-1.4-1.93-.09-.33-.24-.94-.43-1.84-1.17,3.1-2.48,4.75-3.92,4.96-.83.12-1.57-.25-2.21-1.12-.42-.57-.69-1.25-.81-2.04-.34-2.36.17-4.87,1.55-7.52,1.37-2.61,3.04-4.06,5.01-4.35.55-.08,1.13.03,1.77.32ZM166.7,260.66c-.45-.21-.83-.3-1.13-.25-1.27.19-2.36,1.14-3.27,2.87-1.2,2.25-1.67,4.32-1.39,6.22.03.23.11.43.23.62.24.35.54.5.9.45.53-.08,1.1-.69,1.71-1.83.82-1.51,1.52-3.26,2.11-5.25.21-.68.41-1.36.61-2.04l.14-.46.09-.32Z"/><path class="cls-1" d="M188.56,256.8c.56-.48.99-.82,1.27-1.02.58-.39,1.16-.63,1.75-.72.67-.1,1.19.02,1.58.36.39.34.64.89.75,1.67.15,1.06-.03,2.39-.56,3.98-.81,2.52-1.93,4.57-3.37,6.16-1.21,1.34-2.43,2.09-3.64,2.27-.67.1-1.36-.06-2.09-.49-1.46,4.5-2.7,9.05-3.7,13.65-.2,1.1-.53,1.68-1,1.75-.23.03-.48-.09-.75-.35-.2-.19-.32-.41-.35-.67-.12-.82.49-3.62,1.84-8.42,2.08-7.39,4.17-13.58,6.28-18.58.43-1.05.72-1.78.87-2.17.39-1.06.83-1.63,1.33-1.7.52-.08.82.2.91.82.05.35-.06.85-.34,1.49-.33.82-.59,1.48-.78,1.97ZM184.82,266.98c.38.3.83.41,1.33.34,1.41-.21,2.79-1.68,4.14-4.43.5-1.02.87-2.04,1.11-3.06.19-.82.26-1.42.2-1.82-.04-.27-.13-.47-.28-.59-.15-.12-.36-.16-.63-.12-.71.1-1.51.72-2.4,1.86-.85,1.1-1.6,2.58-2.25,4.44-.6,1.71-1,2.84-1.2,3.38Z"/><path class="cls-1" d="M198.68,259.94c-.28,1.25-.48,2.25-.61,3.01-.12.76-.16,1.29-.12,1.57.06.38.27.54.63.49.54-.08,1.17-.7,1.89-1.85.34-.56.81-1.55,1.42-2.97.24-.56.54-.87.89-.92.39-.06.62.1.67.48.1.65-.46,2.08-1.67,4.28-1.26,2.3-2.55,3.55-3.89,3.75-.58.08-1.08-.09-1.52-.52-.31-.31-.5-.72-.57-1.22-.12-.85-.04-2.06.26-3.64.3-1.57.8-3.51,1.5-5.81,1.81-5.85,3.81-10.75,6.01-14.69,1.75-3.16,3.34-4.85,4.76-5.06.45-.07.85.05,1.19.36.35.31.56.68.63,1.14.31,2.12-1.07,5.93-4.14,11.42-1.38,2.44-3.09,4.94-5.13,7.48-.54.67-1.27,1.56-2.21,2.69ZM199.76,256.09c2.76-3.16,5.08-6.98,6.97-11.46.98-2.33,1.41-3.84,1.31-4.53-.05-.33-.22-.48-.5-.44-.83.12-2.11,2-3.82,5.64-1.42,2.99-2.74,6.59-3.95,10.79Z"/><path class="cls-1" d="M212.19,261.85c-.37.95-.76,1.77-1.15,2.44-.78,1.32-1.64,2.05-2.58,2.19-.82.12-1.51-.17-2.08-.88-.36-.46-.59-1.03-.69-1.71-.25-1.68.02-3.61.78-5.8.85-2.43,2.02-4.37,3.52-5.83.98-.95,1.97-1.49,2.99-1.64.64-.09,1.2.03,1.68.36.41.3.65.66.72,1.1.05.33-.01.81-.18,1.44.27.28.43.55.46.79.05.32-.09.87-.41,1.66-.33.81-.63,1.86-.89,3.15-.28,1.37-.36,2.45-.25,3.24.09.64.36,1.13.8,1.49.12.09.46.22,1.01.39.41.13.64.42.71.87.04.29-.03.54-.22.75-.2.23-.45.37-.75.41-.82.12-1.58-.14-2.27-.78-.57-.52-.92-1.23-1.05-2.12-.04-.3-.09-.81-.13-1.51ZM213.94,253.96c-.23-.31-.46-.53-.7-.65-.24-.13-.47-.17-.72-.14-1.15.17-2.25,1.36-3.31,3.57-1.16,2.44-1.63,4.44-1.4,5.98.06.38.17.66.34.83.17.18.4.24.69.2.73-.11,1.46-1,2.21-2.69.42-.93.91-2.28,1.48-4.04.37-1.15.66-1.92.85-2.31.09-.2.28-.45.56-.76Z"/><path class="cls-1" d="M224.27,249.53c1.2-.17,1.89.37,2.07,1.62.16,1.11-.11,2.28-.81,3.53-.54.95-1.06,1.45-1.56,1.53-.42.06-.67-.15-.74-.63-.04-.26,0-.47.09-.64.04-.07.19-.27.47-.6.24-.3.46-.72.67-1.28.15-.38.2-.67.17-.88-.03-.24-.19-.34-.46-.31-.32.05-.77.37-1.35.96-.91.95-1.76,2.36-2.54,4.22-.8,1.94-1.13,3.43-.98,4.46.05.33.19.61.43.84.35.35.76.49,1.25.42.95-.14,2-.89,3.13-2.27.96-1.18,1.74-2.33,2.35-3.45.31-.62.61-.95.9-.99.17-.02.33.03.49.16.14.14.23.28.25.43.08.56-.48,1.76-1.68,3.59-1.92,2.88-3.81,4.46-5.67,4.73-1.12.16-2.04-.11-2.74-.83-.51-.53-.82-1.19-.94-2-.23-1.57.16-3.5,1.16-5.76.97-2.17,2.19-3.98,3.67-5.43.87-.84,1.67-1.31,2.39-1.42Z"/><path class="cls-1" d="M231.96,258.34l.06.41c.05.33.17.61.38.83.46.51,1.12.7,1.99.57,1.89-.28,3.87-2.05,5.93-5.32.37-.57.7-.87,1-.91.17-.02.33.04.49.18.11.11.17.22.19.32.09.59-.5,1.7-1.74,3.32-.98,1.27-2.06,2.35-3.24,3.24-1.19.89-2.33,1.41-3.44,1.57-1.14.17-2.09-.1-2.85-.79-.52-.48-.85-1.19-.98-2.13-.37-2.56.47-5.24,2.52-8.05,1.66-2.29,3.22-3.53,4.68-3.75.39-.06.77.01,1.12.21.44.26.7.65.77,1.16.12.8-.11,1.84-.68,3.12-1.18,2.65-3.24,4.66-6.18,6.03ZM232.21,256.5c1.01-.52,1.78-1.05,2.32-1.59.94-.97,1.65-2.02,2.12-3.14.17-.4.24-.74.2-1.03-.04-.3-.21-.43-.5-.39-.39.06-.91.43-1.55,1.13-1.15,1.24-2.01,2.91-2.59,5.02Z"/><path class="cls-2" d="M224.98,94.93l12.7-3.74v12.61h10.7v9.48h-10.7v21.05c0,5.83,1.83,8.26,5.74,8.26,1.83,0,2.87-.17,4.18-.43l.17,9.83c-1.74.7-4.87,1.13-8.61,1.13-13.92,0-14.18-12.09-14.18-17.49v-22.36h-6.35v-9.48h6.35v-8.87Z"/><path class="cls-2" d="M297.8,152.25h-12.87v-27.92c0-6.18-1.91-10.96-7.48-10.96-3.22,0-8.18,2.26-8.18,9.48v29.4h-12.88v-69.94h12.88v27.32h.17c3.48-5.05,8.79-6.87,12.96-6.87,8.61,0,15.4,6.26,15.4,20.53v28.97Z"/></g></g></svg>